<svg id="Layer_2" enable-background="new 0 0 512 512" height="512" viewBox="0 0 512 512" width="512" xmlns="http://www.w3.org/2000/svg"><path d="m466.433 80.144h-420.866c-25.126 0-45.567 20.442-45.567 45.567v100.556c0 25.126 20.441 45.567 45.567 45.567h420.866c25.126 0 45.567-20.441 45.567-45.567v-100.556c0-25.125-20.441-45.567-45.567-45.567zm-24.372 176.176h-372.125v-8.901c0-10.116 8.231-18.347 18.347-18.347h335.431c10.116 0 18.347 8.231 18.347 18.347zm54.424-30.052c0 16.571-13.482 30.052-30.052 30.052h-8.857v-8.901c0-18.672-15.191-33.862-33.862-33.862h-335.431c-18.672 0-33.862 15.19-33.862 33.862v8.901h-8.854c-16.571 0-30.052-13.481-30.052-30.052v-100.557c0-16.571 13.481-30.052 30.052-30.052h420.866c16.571 0 30.052 13.481 30.052 30.052zm-62.211-93.4c-14.211 0-25.773 11.562-25.773 25.773s11.562 25.773 25.773 25.773c14.212 0 25.773-11.562 25.773-25.773s-11.562-25.773-25.773-25.773zm0 36.031c-5.656 0-10.258-4.602-10.258-10.258s4.601-10.258 10.258-10.258 10.258 4.601 10.258 10.258-4.602 10.258-10.258 10.258zm-95.47 152.736c-.697-21.584-17.159-36.289-17.859-36.904-3.219-2.828-8.12-2.511-10.948.707-2.828 3.219-2.511 8.12.707 10.948.121.107 12.118 11.046 12.593 25.749.299 9.268-4.061 18.478-12.958 27.375-20.511 20.511-19.339 41.411-14.744 55.333 4.801 14.544 14.302 24.296 14.704 24.704 1.516 1.538 3.512 2.308 5.511 2.308 1.958 0 3.919-.739 5.431-2.219 3.054-2.989 3.106-7.896.127-10.961-.076-.078-7.617-7.923-11.188-19.151-4.469-14.053-.725-27.189 11.129-39.044 12.053-12.049 17.939-25.119 17.495-38.845zm34.483 15.489c-.457-14.152-10.699-23.548-11.866-24.572-3.219-2.828-8.12-2.511-10.948.707-2.828 3.219-2.511 8.12.707 10.948.063.056 6.357 5.913 6.599 13.418.153 4.742-2.19 9.567-6.964 14.341-10.562 10.562-14 23.584-9.68 36.668 3.079 9.329 8.978 15.493 9.641 16.165 1.518 1.541 3.521 2.313 5.526 2.313 1.966 0 3.934-.743 5.445-2.232 3.052-3.007 3.087-7.919.08-10.97-.039-.04-4.014-4.249-5.958-10.139-2.491-7.545-.555-14.36 5.919-20.834 7.927-7.928 11.796-16.613 11.499-25.813zm-87.249 0c-.457-14.152-10.699-23.548-11.866-24.572-3.219-2.828-8.12-2.511-10.948.707-2.828 3.219-2.511 8.12.708 10.948.063.056 6.357 5.913 6.599 13.418.153 4.742-2.19 9.567-6.964 14.341-10.562 10.562-14 23.584-9.68 36.668 3.08 9.329 8.978 15.493 9.641 16.165 1.518 1.541 3.521 2.313 5.526 2.313 1.966 0 3.934-.743 5.445-2.232 3.052-3.007 3.088-7.919.08-10.97-.039-.04-4.014-4.249-5.958-10.139-2.491-7.545-.555-14.36 5.919-20.834 7.926-7.928 11.795-16.613 11.498-25.813zm-91.715.168c-2.142-3.71-6.886-4.981-10.597-2.84l-19.396 11.198v-24.75c0-4.285-3.473-7.758-7.758-7.758s-7.758 3.473-7.758 7.758v24.75l-21.435-12.375c-3.711-2.143-8.455-.871-10.597 2.839s-.871 8.455 2.839 10.597l21.435 12.375-21.435 12.375c-3.71 2.142-4.982 6.887-2.839 10.597 1.437 2.489 4.045 3.88 6.725 3.88 1.316 0 2.65-.336 3.872-1.041l21.435-12.375v22.396c0 4.285 3.473 7.758 7.758 7.758 4.284 0 7.758-3.473 7.758-7.758v-22.397l19.396 11.198c1.222.705 2.555 1.041 3.872 1.041 2.681 0 5.289-1.392 6.725-3.88 2.142-3.71.871-8.455-2.839-10.597l-19.396-11.198 19.396-11.198c3.71-2.14 4.981-6.885 2.839-10.595z"/></svg>