<svg id="Layer_1" enable-background="new 0 0 66 66" height="512" viewBox="0 0 66 66" width="512" xmlns="http://www.w3.org/2000/svg"><g><path d="m64.04 8.56c0-3.11-2.52-5.63-5.63-5.63h-50.82c-3.11 0-5.63 2.52-5.63 5.63v13.28h62.08z" fill="#5bbcb9"/><path d="m1.96 21.84v8.45c0 3.11 2.52 5.63 5.63 5.63h50.82c3.11 0 5.63-2.52 5.63-5.63v-8.45z" fill="#caeae9"/><path d="m55.41 31.37v4.56h-44.82v-4.56c0-1.27 1.03-2.3 2.3-2.3h40.21c1.28-.01 2.31 1.02 2.31 2.3z" fill="#3f7e9f"/><path d="m56.97 12.82c0 2.03-1.64 3.67-3.67 3.67s-3.67-1.64-3.67-3.67 1.64-3.67 3.67-3.67c2.03.01 3.67 1.65 3.67 3.67z" fill="#ffd404"/><path d="m54.6 9.4c.15.4.25.84.25 1.29 0 2.03-1.64 3.67-3.67 3.67-.46 0-.89-.09-1.29-.25.52 1.39 1.85 2.37 3.42 2.37 2.03 0 3.67-1.64 3.67-3.67-.01-1.56-1-2.88-2.38-3.41z" opacity=".12"/><path d="m44.63 12.82c0 1.07-.87 1.94-1.94 1.94s-1.94-.87-1.94-1.94.87-1.94 1.94-1.94 1.94.87 1.94 1.94z" fill="#726f82"/><path d="m43.16 53c.48-.06.86-.45.86-.95s-.38-.89-.87-.95l.58-.58c.38-.38.38-.99 0-1.37s-.99-.38-1.37 0l-1.93 1.93h-4.06c-.07-.26-.17-.5-.3-.73l2.87-2.87h2.72c.54 0 .97-.43.97-.97s-.43-.97-.97-.97h-.81c.3-.38.29-.93-.06-1.28s-.9-.36-1.28-.06v-.82c0-.54-.43-.97-.97-.97s-.97.43-.97.97v2.73l-2.88 2.88c-.23-.12-.47-.21-.72-.28v-4.1l1.93-1.93c.38-.38.38-.99 0-1.37s-.99-.38-1.37 0l-.58.58c-.06-.48-.45-.86-.95-.86s-.89.38-.95.86l-.58-.58c-.38-.38-.99-.38-1.37 0s-.38.99 0 1.37l1.93 1.93v4.1c-.25.07-.49.16-.72.28l-2.88-2.88v-2.73c0-.54-.43-.97-.97-.97s-.97.43-.97.97v.82c-.38-.3-.93-.29-1.28.06s-.36.9-.06 1.28h-.81c-.54 0-.97.43-.97.97s.43.97.97.97h2.72l2.87 2.87c-.13.23-.23.48-.3.74h-4.06l-1.93-1.93c-.38-.38-.99-.38-1.37 0s-.38.99 0 1.37l.58.58c-.48.05-.87.45-.87.95s.38.89.86.95l-.57.57c-.38.38-.38.99 0 1.37.19.19.44.28.69.28s.5-.09.69-.28l1.92-1.92h4.07c.07.26.17.5.3.73l-2.87 2.87h-2.72c-.54 0-.97.43-.97.97s.43.97.97.97h.81c-.3.38-.29.93.06 1.28.19.19.44.28.69.28.21 0 .42-.08.6-.22v.82c0 .54.43.97.97.97s.97-.43.97-.97v-2.73l2.87-2.87c.23.13.48.23.73.3v4.06l-1.93 1.93c-.38.38-.38.99 0 1.37s.99.38 1.37 0l.58-.58c.06.48.45.86.95.86s.89-.38.95-.86l.58.58c.19.19.44.28.69.28s.5-.09.69-.28c.38-.38.38-.99 0-1.37l-1.93-1.93v-4.06c.26-.07.5-.18.73-.3l2.87 2.87v2.73c0 .54.43.97.97.97s.97-.43.97-.97v-.83c.18.14.38.22.6.22.25 0 .5-.09.69-.28.35-.35.36-.9.06-1.28h.81c.54 0 .97-.43.97-.97s-.43-.97-.97-.97h-2.72l-2.87-2.87c.13-.23.23-.48.3-.73h4.06l1.92 1.92c.19.19.44.28.69.28s.5-.09.69-.28c.38-.38.38-.99 0-1.37zm-11.29.18c-.3-.3-.47-.71-.47-1.13 0-.43.17-.82.46-1.13.3-.3.71-.46 1.13-.46s.83.17 1.13.47.47.7.47 1.13c0 .42-.17.83-.47 1.13-.59.58-1.65.58-2.25-.01z" fill="#6e6ece"/><g fill="#f56356"><path d="m10.59 43.09c-.54 0-.97.43-.97.97 0 6.73-3 13.02-8.28 17.29-.41.34-.46.93-.12 1.35.19.23.47.35.75.35.22 0 .45-.07.63-.22 5.69-4.6 8.96-11.44 8.96-18.77 0-.54-.43-.97-.97-.97z"/><path d="m19.32 43.09c-.54 0-.97.43-.97.97 0 6.73-3 13.02-8.28 17.29-.41.34-.46.93-.12 1.35.19.23.47.35.75.35.22 0 .45-.07.63-.22 5.69-4.6 8.96-11.44 8.96-18.77 0-.54-.43-.97-.97-.97z"/></g><g fill="#f56356"><path d="m55.41 43.09c.54 0 .97.43.97.97 0 6.73 3 13.02 8.28 17.29.41.34.46.93.12 1.35-.19.23-.47.35-.75.35-.22 0-.45-.07-.63-.22-5.69-4.6-8.96-11.44-8.96-18.77 0-.54.43-.97.97-.97z"/><path d="m46.68 43.09c.54 0 .97.43.97.97 0 6.73 3 13.02 8.28 17.29.41.34.46.93.12 1.35-.19.23-.47.35-.75.35-.22 0-.45-.07-.63-.22-5.69-4.6-8.96-11.44-8.96-18.77 0-.54.43-.97.97-.97z"/></g><path d="m59.94 3.15c.14.49.22 1 .22 1.53v21.74c0 3.11-2.52 5.64-5.64 5.64h-50.82c-.53 0-1.04-.08-1.53-.22.67 2.37 2.84 4.1 5.41 4.1h50.82c3.11 0 5.64-2.52 5.64-5.64v-21.74c0-2.58-1.73-4.74-4.1-5.41z" opacity=".12"/><g opacity=".35"><path d="m5.84 18.93c-.54 0-.97-.43-.97-.97v-9.4c0-1.5 1.22-2.72 2.72-2.72h4.37c.54 0 .97.43.97.97s-.43.97-.97.97h-4.37c-.43 0-.78.35-.78.78v9.4c0 .54-.43.97-.97.97z" fill="#fff"/></g></g></svg>