<svg id="&#x421;&#x43B;&#x43E;&#x439;_1" enable-background="new 0 0 16 16" viewBox="0 0 16 16" xmlns="http://www.w3.org/2000/svg"><path d="m15.6435547 1.1533203c-.1401367-.0566406-.3012695-.0253906-.4086914.0810547l-3.890625 3.890625h-1.4692383v-3.625c0-.1513672-.0913086-.2880859-.2314453-.3466797-.140625-.0566406-.3012695-.0253906-.4086914.0810547l-9 9c-.0703125.0703125-.1098633.1660156-.1098633.265625v4c0 .2070313.1679688.375.375.375h6c.0976563 0 .1933594-.0380859.2651367-.109375l9-9c.0703125-.0703125.1098633-.1660156.1098633-.265625v-4c0-.1513672-.0913086-.2880859-.2314453-.3466797zm-6.5185547 1.2519531v2.9389648l-8.25 8.25v-2.9389648zm-2.8901367 7.8291016c-.0703125.0703125-.1098633.1660156-.1098633.265625v3.625h-4.7192383l8.25-8.25h.9384766zm8.8901367-4.8896484-8.25 8.25v-2.9394531l8.25-8.25z" fill="rgb(0,0,0)"/></svg>