<svg id="Layer_1" enable-background="new 0 0 512 512" viewBox="0 0 512 512" xmlns="http://www.w3.org/2000/svg"><g clip-rule="evenodd" fill-rule="evenodd"><path d="m215.16 354.9 3.8-59.78 30.13-32.06 20.83 22.14c7.48 7.99 20.3 3.51 21.88-7.65l9.69-67.8c2.04-14.26-9.41-26.42-22.82-24.26l-63.75 10.32c-10.49 1.7-14.68 15.31-7.17 23.3l20.81 22.14-28.91 30.78-57.06-10.03-36.59-38.94 20.81-22.14c7.51-7.99 3.32-21.6-7.17-23.3l-63.75-10.32c-13.41-2.15-24.83 10.01-22.82 24.26l9.69 67.8c1.62 11.17 14.4 15.65 21.91 7.65l20.81-22.14 35.32 37.53.45 46.06-32.83 34.92-20.81-22.14c-7.51-7.99-20.32-3.52-21.91 7.65l-9.69 67.8c-2.04 14.26 9.41 26.42 22.82 24.26l63.75-10.32c10.49-1.7 14.68-15.31 7.17-23.27l-20.81-22.17 22.14-23.56 63.21 14.94 28.18 38.58-23.24 19.22c-8.36 6.92-5.78 21 4.42 24.07l62.05 18.65c13.04 3.91 25.82-6.66 25.46-21.09l-1.7-68.54c-.28-11.28-12.44-17.4-20.83-10.49l-23.24 19.25z" fill="#cac8c9"/><path d="m44.12 169.18c3.49-1.79 7.51-2.55 11.76-1.87l63.75 10.32c4.08.65 7.23 3.15 9.1 6.41l231.14-136.4c1.53-.91 1.11-3.34-.62-3.66l-67.61-12.48z" fill="#c4c3c2"/><path d="m474.68 140.6c4.56-3.54 7.06-8.65 7.17-14.65l.99-49.27c.14-6.92-4.11-12.87-10.4-14.57l-42.55-11.59c-4.73-1.28-9.27-.45-13.32 2.41-43.48 30.76-170.22 120.02-202.65 143.06.34-.06.68-.14 1.02-.2l63.75-10.32c11-2.41 20.83 6.04 22.73 17.15.4 2.35.43 4.76.09 7.11l-9.69 67.8c-.54 3.66-2.3 6.86-5.1 9.01z" fill="#b6b5b3"/><path d="m132.99 421.12 50.4-47.08-52.3-12.36-22.14 23.56 20.81 22.17c3.68 3.87 4.53 9.15 3.23 13.71z" fill="#4d4d4c"/><path d="m283.85 376.5c3.2 2.32 5.5 6.18 5.61 11l1.7 68.54c.14 5.84-1.84 11.03-5.13 14.88l189.35-215.21-10.97-66.42z" fill="#9d9c9e"/><path d="m126.72 181.34 214.08-122.46 14.63 37.22-24.69 17.4c-47.59 33.56-98.02 69.14-116.82 82.49-7.71 1.9-11.62 10.49-9.3 17.8l-60.86 48.42-5.39-4.68-32.37-34.47 20.81-22.14c5.44-5.81 4.73-14.57-.09-19.58z" fill="#929292"/><path d="m214.57 353.97 72.31-67.52 20.61-15.99 120.22-93.37 24.26 25.12-165 177.48c-4.05-5.81-12.22-7.74-18.34-2.66l-23.24 19.25z" fill="#6b6b6b"/><path d="m120.8 282.42-5.47-5.81-3.71 2.1-61.2 61.51.96-.74c4.96-3.49 11.68-2.98 16.24 1.79l20.81 22.14 32.83-34.92z" fill="#737474"/><g fill="#181817"><path d="m167.29 292.09c13.12 0 23.75 11.31 23.75 25.26s-10.63 25.26-23.75 25.26c-13.1 0-23.73-11.31-23.73-25.26s10.63-25.26 23.73-25.26z"/><path d="m72.44 192.73c8.62 0 15.59 7.43 15.59 16.58 0 9.16-6.97 16.58-15.59 16.58-8.59 0-15.59-7.43-15.59-16.58s7-16.58 15.59-16.58z"/><path d="m260.32 210.19c8.62 0 15.59 7.43 15.59 16.58 0 9.16-6.97 16.58-15.59 16.58s-15.59-7.43-15.59-16.58 6.97-16.58 15.59-16.58z"/><path d="m252.13 417.72c8.62 0 15.59 7.43 15.59 16.58 0 9.16-6.97 16.58-15.59 16.58s-15.59-7.43-15.59-16.58c0-9.16 6.97-16.58 15.59-16.58z"/><path d="m74.71 383.42c8.62 0 15.59 7.4 15.59 16.58 0 9.16-6.97 16.58-15.59 16.58s-15.59-7.42-15.59-16.58c0-9.18 6.97-16.58 15.59-16.58z"/></g><path d="m225.17 412.76-30.87-36.14.17 71.2z" fill="#4d4d4c"/><path d="m143.76 262.21 60.21-47.88 24.6 26.9-28.91 30.79z" fill="#4d4d4c"/><path d="m215.25 353.68 73.87-66.73-14.63 1.42c-1.64-.65-3.2-1.7-4.56-3.17l-20.83-22.14-30.13 32.06z" fill="#4d4d4c"/></g></svg>