<svg id="Capa_1" enable-background="new 0 0 512.006 512.006" height="512" viewBox="0 0 512.006 512.006" width="512" xmlns="http://www.w3.org/2000/svg"><g><path d="m39.691 256.762c16.864 30.4 48.937 49.286 83.7 49.286h21.268v18.378c0 13.58 11.048 24.628 24.628 24.628h10.046c11.795 13.145 18.262 29.968 18.262 47.722 0 5.819-.716 11.594-2.121 17.234h-33.407c-18.489 0-33.532 15.042-33.532 33.531v2.592h-12.004c-11.21 0-20.33 9.12-20.33 20.331v21.211c0 11.21 9.12 20.33 20.33 20.33h117.536c4.143 0 7.5-3.358 7.5-7.5s-3.357-7.5-7.5-7.5h-117.536c-2.939 0-5.33-2.391-5.33-5.33v-21.211c0-2.939 2.391-5.331 5.33-5.331h275.991c2.939 0 5.33 2.391 5.33 5.331v21.211c0 2.939-2.391 5.33-5.33 5.33h-123.455c-4.143 0-7.5 3.358-7.5 7.5s3.357 7.5 7.5 7.5h123.455c11.21 0 20.33-9.12 20.33-20.33v-21.211c0-11.21-9.12-20.331-20.33-20.331h-12.005v-2.592c0-18.489-15.042-33.531-33.531-33.531h-33.371c-1.405-5.642-2.122-11.417-2.122-17.234 0-17.754 6.467-34.578 18.263-47.722h23.436c70.972 0 128.712-57.74 128.712-128.712 0-11.854-9.645-21.499-21.499-21.499h-291.118c-10.965 0-20.276 7.205-23.456 17.128h-96.989c-14.257 0-23.289 15.306-16.363 27.788zm325.826 190.78v2.592h-221.982v-2.592c0-10.218 8.313-18.531 18.532-18.531h184.919c10.218 0 18.531 8.313 18.531 18.531zm-67.284-33.531h-87.376c1.155-5.666 1.738-11.432 1.738-17.234 0-17.195-5.01-33.675-14.329-47.722h112.558c-9.32 14.047-14.33 30.526-14.33 47.722 0 5.8.583 11.567 1.739 17.234zm-128.946-200.168h291.119c3.584 0 6.499 2.916 6.499 6.499 0 62.701-51.011 113.712-113.712 113.712-7.716 0-171.24 0-183.906 0-5.309 0-9.628-4.319-9.628-9.628 0-11.413 0-89.921 0-100.955 0-5.308 4.319-9.628 9.628-9.628zm-120.445 17.129h95.816v60.076h-21.268c-29.316 0-56.362-15.926-70.583-41.562l-7.212-13.003c-1.371-2.474.416-5.511 3.247-5.511z"/><path d="m64.656 176.618c4.163 12.57 17.773 19.413 30.348 15.251l196.909-65.189 7.772 23.476c3.724 11.25 15.842 17.351 27.105 13.623l39.015-12.917c11.228-3.717 17.339-15.876 13.622-27.104l-13.444-40.61c-1.303-3.932-5.547-6.065-9.478-4.763-3.932 1.302-6.064 5.545-4.763 9.477l13.444 40.609c1.118 3.376-.72 7.033-4.097 8.151l-39.015 12.916c-3.381 1.122-7.031-.711-8.15-4.096l-40.374-121.955c-1.503-4.542 2.286-9.083 7.022-8.415l45.408 6.393c2.445.344 4.447 2.015 5.224 4.36l9.525 28.772c1.302 3.932 5.546 6.064 9.478 4.763 3.932-1.302 6.064-5.545 4.763-9.478l-9.525-28.771c-2.582-7.799-9.239-13.355-17.373-14.5l-45.407-6.393c-15.762-2.224-28.349 12.894-23.354 27.982l11.535 34.841c-5.554 1.839-190.549 63.084-196.909 65.189-12.572 4.162-19.414 17.775-15.253 30.348zm206.021-58.709-11.639-35.158 16.521-5.469c1.797 5.43 7.154 21.611 11.639 35.158zm-192.027 24.562 166.148-55.005 11.639 35.158-166.148 55.005c-4.724 1.562-9.823-.986-11.393-5.726l-5.973-18.039c-1.562-4.72 1.007-9.831 5.727-11.393z"/></g></svg>