<svg clip-rule="evenodd" fill-rule="evenodd" height="512" image-rendering="optimizeQuality" shape-rendering="geometricPrecision" text-rendering="geometricPrecision" viewBox="0 0 1.70666 1.70666" width="512" xmlns="http://www.w3.org/2000/svg"><g id="Layer_x0020_1"><g id="_445700832"><path id="_445702176" d="m1.16317.387181c-.00882677 0-.0169055-.00588583-.0192953-.0148268l-.0525-.195949c-.00288189-.0106693.00350394-.0216299.0141299-.0244843l.0968465-.0259449c.0107047-.00284252.0216417.00348425.0244882.0141457l.0525.195949c.00288189.0106732-.00350394.0216339-.0141299.0244843l-.102039.026626z" fill="#984f10"/><path id="_445702032" d="m.326496.607827c-.140819 0-.167831-.202165-.0315669-.238685l.489594-.131193c.0106339-.0028622.021626.00346457.0244843.0141417l.0525039.195953c.00287402.0106575-.00348031.0216299-.0141457.0244843l-.489606.131193c-.0102087.00271654-.0207441.0041063-.0312638.0041063z" fill="#984f10"/><path id="_445702512" d="m.882673.51789c-.0258071 0-.0485039-.0173937-.0551772-.0422835l-.0617283-.230406c-.0081378-.0303898.00997638-.0617559.0403661-.0698898.0252362-.00675984.0752717-.0250276.0881732-.0175787.00459449.00264961.00793701.00701181.00931102.0121457l.0809252.302031c.00288189.0106693-.00350394.0216299-.014126.0244843-.0167008.00448425-.0739331.0214961-.0877441.0214961z" fill="#fca228"/><path id="_445702488" d="m.83389.167118c.0241732-.00721654.0513898-.0145984.0604173-.00938583.00459449.00264961.00793701.00701181.00931102.0121457l.0809252.302031c.00288189.0106693-.00350394.0216299-.014126.0244843-.00835433.00224409-.0268425.00761811-.0449685.0124331l-.0915591-.341709z" fill="#fc9224"/><path id="_445701960" d="m.721709 1.506c-.0207205 0-.0277559-.0291614-.00925984-.0391969.101516-.0550866.142669-.174823.0900866-.276681-.0124567-.0241299.0227835-.0437598.0352126-.0196693.00519685.0100709.00961811.0202913.013315.0305945h.348346c.00370866-.0103189.00813386-.0205472.0133346-.0306102.0124409-.0240787.0476693-.00445669.0352165.0196654-.0526024.101862-.0114055.221571.0900866.276681.0185394.0100709.0114094.0392165-.00927165.0392165-.00312205 0-.00627559-.00075984-.00922835-.00236614-.0202874-.0110118-.0385276-.024252-.0545669-.0392165l-.479425.00000394c-.0160906.0150591-.0343661.0283031-.0546102.0392283-.00294882.00158268-.00611417.00235039-.00923622.00235039z" fill="#746572"/><path id="_445702128" d="m.818933 1.23275c-.00377165-.0144016-.00920079-.0286811-.0163976-.042622-.0124567-.0241299.0227835-.0437598.0352126-.0196693.00519685.0100709.00961811.0202913.013315.0305945h.348346c.00370866-.0103189.00813386-.0205472.0133346-.0306102.0124409-.0240787.0476693-.00445669.0352165.0196654-.00720472.0139488-.0126378.0282323-.0164094.0426417h-.412618z" fill="#6b5e69"/><path id="_445702200" d="m.59039 1.073c-.0154252 0-.445472-.045374-.525614-.290311-.0052874-.0161614.010878-.0312165.026685-.0246693.00130709.00053937.133232.0544409.325945.0554724h.172972c.0110315 0 .0199882.00895276.0199882.0199882v.219531c0 .0110354-.00897244.0199882-.0199764.0199882z" fill="#8e858f"/><path id="_445701792" d="m1.46398 1.7062h-.877469c-.0379803 0-.0688819-.0309094-.0688819-.0688898v-.10902c0-.0379803.0309016-.0688937.0688819-.0688937l.877469-.00000394c.0379764 0 .0688898.0309094.0688898.0688898v.109024c0 .0379921-.0309134.0688937-.0688898.0688937z" fill="#8e858f"/><path id="_445701264" d="m1.3455 1.20608h-.64052c-.0110315 0-.0199882-.00896457-.0199882-.0199882v-.0950866c0-.0110315.00895669-.0199882.0199882-.0199882h.64052c.0110354 0 .0199921.00896457.0199921.0199882v.0950866c0 .0110354-.00895276.0199882-.0199921.0199882z" fill="#8e858f"/><path id="_445701720" d="m.684992 1.13768v-.0466693c0-.0110315.00895669-.0199882.0199882-.0199882h.64052c.0110354 0 .0199921.00896457.0199921.0199882v.046378c-.00433071.00017323-.00867717.00029134-.0130512.00029134h-.667449z" fill="#807a81"/><path id="_445701648" d="m1.01993.594807c-.0258189 0-.0485157-.0173937-.0551772-.0422992l-.118575-.442547c-.00814961-.0303937.0099685-.0617559.0403543-.0698937.0237677-.00636614.139803-.0396024.155232-.0396024.0258189 0 .0485157.0173937.0551772.042315l.118587.442547c.00814567.0304016-.0099685.0617598-.0403504.0698937-.0239055.00640157-.139626.0395866-.155248.0395866z" fill="#ccc1c0"/><path id="_445701072" d="m.950984.501114-.0101732-.0379764.250638-.0676772-.0193858-.0723543.0297362.110972-.250815.0670354zm-.0807008-.301193-.0103622-.0386732.250543-.0680157.0103268.0385354-.250508.0681535z" fill="#dad2d1"/><g fill="#ccc1c0"><path id="_445701288" d="m1.286.670276c-.0149843 0-.051122-.0428346-.0698346-.0615512-.018622-.0186181.00967717-.046878.0282795-.0282598l.055689.055689c.0126299.0126299.00350394.034122-.0141339.034122z"/><path id="_445701672" d="m1.35519.586185-.0845197-.0161929c-.0258504-.0050748-.0180866-.0442638.00768504-.0392283l.0806496.0158228c.0235827.00462598.0200709.0395984-.00381496.0395984z"/><path id="_445701408" d="m.916098.698362c-.017626 0-.0267835-.0214843-.0141417-.034122l.0557047-.0556929c.0186299-.0186299.046874.00966929.0282795.0282638-.0187087.0187087-.0548701.0615512-.0698425.0615512z"/><path id="_445701312" d="m.846906.614256c-.0238898 0-.0274449-.0349803-.00383071-.0396024l.0806496-.0158228c.0258425-.00506299.0335039.0341693.00768504.0392283l-.0845039.0161969z"/></g><path id="_445700280" d="m1.35244 1.11101h-.762051c-.0110354 0-.0199921-.00896457-.0199921-.0199882v-.295535c0-.0110315.00895669-.0199882.0199921-.0199882h1.03222c.0243898 0 .0199882.0281693.0199882.0453268.00001575.160004-.130161.290185-.290161.290185z" fill="#746572"/></g></g></svg>