<svg id="Capa_1" enable-background="new 0 0 512 512" height="512" viewBox="0 0 512 512" width="512" xmlns="http://www.w3.org/2000/svg"><g><g><path d="m90.659 364.908c-3.915-6.224-8.135-12.434-12.688-18.581l-37.081-9-40.891 9v18.581l40.891 9z" fill="#a71f29"/><path d="m105.998 295.194c37.203-37.644 113.43-130.324 113.43-257.831l-73.143-18h-72.468l-73.817 18v257.831l48.424 9z" fill="#c32430"/><path d="m105.998 295.194h-105.998v18.581l40.891 9 45.147-9s7.953-6.432 19.96-18.581z" fill="#a71f29"/><path d="m421.341 364.908c3.915-6.224 8.135-12.434 12.688-18.581l37.081-9 40.891 9v18.581l-40.891 9z" fill="#a71f29"/><path d="m406.002 295.194c-37.203-37.644-113.43-130.324-113.43-257.831l73.143-18h72.469l73.817 18v257.831l-48.424 9z" fill="#c32430"/><path d="m406.002 295.194h105.998v18.581l-40.891 9-45.147-9s-7.953-6.432-19.96-18.581z" fill="#a71f29"/><path d="m452.011 295.194c-50.313-72.07-60.739-135.315-61.217-138.373-.662-4.224 2.226-8.184 6.451-8.846 4.224-.675 8.185 2.226 8.846 6.451.116.74 11.156 67.694 65.02 140.768l-4.439 9.29z" fill="#da4a54"/><path d="m471.109 295.194c4.542 6.162 9.388 12.367 14.558 18.581l-9.998 9-9.913-9c-4.884-6.237-9.459-12.441-13.746-18.581z" fill="#d82e3d"/><path d="m418.562 346.327h93.438v-32.552h-93.438c-8.989 0-16.276 7.287-16.276 16.276 0 8.989 7.287 16.276 16.276 16.276z" fill="#fde079"/><path d="m405.208 320.761c2.941-4.219 7.821-6.986 13.354-6.986h93.438v13.971l-10.656 9h-82.782c-5.533 0-13.354-4.09-13.354-15.985z" fill="#fde079"/><path d="m418.562 327.746h93.438v18.581h-93.438c-8.989 0-16.276-7.287-16.276-16.276 0-3.456 1.085-6.655 2.922-9.29 2.94 4.219 7.821 6.985 13.354 6.985z" fill="#f7cd58"/><path d="m421.34 364.908h90.66v142.092c0 2.762-2.238 5-5 5h-129.756c-2.958 0-5.275-2.551-4.976-5.494 1.882-18.496 10.805-80.754 49.072-141.598z" fill="#c32430"/><path d="m402.285 55.354c-20.198 0-36.572-16.374-36.572-36.571v18.581c0 20.198 16.374 36.571 36.572 36.571s36.571-16.374 36.571-36.571v-18.581c.001 20.197-16.373 36.571-36.571 36.571z" fill="#a71f29"/><path d="m36.571 64.354c20.198 0 36.571-11.976 36.571-45.571v-18.783h-68.142c-2.761 0-5 2.239-5 5v13.783c0 32.757 16.374 45.571 36.571 45.571z" fill="#da4a54"/><path d="m59.989 295.194c50.313-72.07 60.739-135.315 61.218-138.373.662-4.224-2.226-8.184-6.451-8.846-4.224-.675-8.185 2.226-8.846 6.451-.116.74-11.156 67.694-65.02 140.768l4.439 9.29z" fill="#da4a54"/><path d="m40.891 295.194c-4.542 6.162-9.388 12.367-14.558 18.581l9.998 9 9.913-9c4.884-6.237 9.459-12.441 13.746-18.581z" fill="#d82e3d"/><path d="m475.428 64.354c20.198 0 36.572-17.995 36.572-45.571v-13.783c0-2.761-2.239-5-5-5h-68.143v18.785c0 32.942 16.374 45.569 36.571 45.569z" fill="#da4a54"/><path d="m36.571 55.354c-20.197 0-36.571-16.374-36.571-36.571v18.581c0 20.198 16.374 36.571 36.571 36.571 20.198 0 36.571-16.374 36.571-36.571v-18.581c.001 20.197-16.373 36.571-36.571 36.571z" fill="#d82e3d"/><path d="m109.714 64.354c20.198 0 36.571-11.976 36.571-45.571v-18.783h-73.142v18.783c0 32.757 16.373 45.571 36.571 45.571z" fill="#c32430"/><path d="m109.714 55.354c-20.198 0-36.572-16.374-36.572-36.571v18.581c0 20.198 16.373 36.571 36.571 36.571 20.198 0 36.571-16.374 36.571-36.571v-18.581c.002 20.197-16.372 36.571-36.57 36.571z" fill="#a71f29"/><path d="m182.857 64.354c20.198 0 36.571-11.976 36.571-45.571v-18.783h-73.143v18.783c.001 32.757 16.374 45.571 36.572 45.571z" fill="#da4a54"/><path d="m182.857 55.354c-20.198 0-36.571-16.374-36.571-36.571v18.581c0 20.198 16.373 36.571 36.571 36.571 20.198 0 36.571-16.374 36.571-36.571v-18.581c0 20.197-16.373 36.571-36.571 36.571z" fill="#d82e3d"/><path d="m256 64.354c20.198 0 36.571-11.976 36.571-45.571v-18.783h-73.143v18.783c0 32.757 16.374 45.571 36.572 45.571z" fill="#c32430"/><path d="m256 55.354c-20.198 0-36.572-16.374-36.572-36.571v18.581c0 20.198 16.374 36.571 36.571 36.571 20.198 0 36.571-16.374 36.571-36.571v-18.581c.001 20.197-16.372 36.571-36.57 36.571z" fill="#a71f29"/><path d="m329.143 64.354c20.198 0 36.571-11.976 36.571-45.571v-18.783h-73.143v18.783c0 32.757 16.374 45.571 36.572 45.571z" fill="#da4a54"/><path d="m329.143 55.354c-20.198 0-36.571-16.374-36.571-36.571v18.581c0 20.198 16.373 36.571 36.571 36.571 20.198 0 36.571-16.374 36.571-36.571v-18.581c0 20.197-16.373 36.571-36.571 36.571z" fill="#d82e3d"/><path d="m402.285 64.354c20.198 0 36.571-11.976 36.571-45.571v-18.783h-73.143v18.783c.001 32.757 16.374 45.571 36.572 45.571z" fill="#c32430"/><path d="m402.285 55.354c-20.198 0-36.572-16.374-36.572-36.571v18.581c0 20.198 16.374 36.571 36.571 36.571 20.198 0 36.571-16.374 36.571-36.571v-18.581c.002 20.197-16.372 36.571-36.57 36.571z" fill="#a71f29"/><path d="m475.428 55.354c-20.198 0-36.571-16.374-36.571-36.571v18.581c0 20.198 16.374 36.571 36.571 36.571 20.198 0 36.571-16.374 36.571-36.571v-18.581c.001 20.197-16.373 36.571-36.571 36.571z" fill="#d82e3d"/><path d="m93.438 346.327h-93.438v-32.552h93.438c8.989 0 16.276 7.287 16.276 16.276 0 8.989-7.287 16.276-16.276 16.276z" fill="#fde079"/><path d="m106.792 320.761c-2.941-4.219-7.821-6.986-13.354-6.986h-93.438v13.971l10.656 9h82.782c5.533 0 13.354-4.09 13.354-15.985z" fill="#fde079"/><path d="m93.438 327.746h-93.438v18.581h93.438c8.989 0 16.276-7.287 16.276-16.276 0-3.456-1.085-6.655-2.922-9.29-2.94 4.219-7.821 6.985-13.354 6.985z" fill="#f7cd58"/><path d="m90.66 364.908h-90.66v142.092c0 2.762 2.239 5 5 5h129.756c2.958 0 5.275-2.551 4.976-5.494-1.882-18.496-10.805-80.754-49.072-141.598z" fill="#c32430"/></g></g></svg>