<svg clip-rule="evenodd" fill-rule="evenodd" height="512" image-rendering="optimizeQuality" shape-rendering="geometricPrecision" text-rendering="geometricPrecision" viewBox="0 0 173.397 173.397" width="512" xmlns="http://www.w3.org/2000/svg"><g id="Layer_x0020_1"><g id="_376943248"><path id="_376944856" d="m47.3135 42.2982c-.4386 0-.8774-.1704-1.2081-.5151-.6365-.6652-.6162-1.7234.0522-2.3604 4.0002-3.8367 2.3291-6.1343-.1984-9.6157-2.4925-3.4361-5.908-8.1395.1984-13.9917.6657-.6372 1.7234-.6128 2.3638.0522.6377.6649.6163 1.7233-.0522 2.3639-3.9999 3.833-2.3289 6.1307.1951 9.6122 2.4961 3.4359 5.9114 8.1394-.1951 13.9917-.3237.3098-.738.463-1.1557.4629z"/><path id="_376944808" d="m67.0045 42.2982c-.4386 0-.8776-.1704-1.2048-.5151-.6406-.6652-.6161-1.7234.0487-2.3604 4.0004-3.8367 2.3325-6.1343-.195-9.6157-2.4926-3.4361-5.9113-8.1395.195-13.9917.6689-.6372 1.7233-.6128 2.364.0522.6377.6649.6161 1.7233-.0523 2.3639-3.9998 3.833-2.3291 6.1307.1984 9.6122 2.4929 3.4359 5.9079 8.1394-.1984 13.9917-.3236.3098-.738.463-1.1556.4629z"/><path id="_376944352" d="m86.6987 42.2982c-.4418 0-.881-.1704-1.2082-.5151-.6365-.6652-.6163-1.7234.0487-2.3604 4.0006-3.8367 2.3326-6.1343-.195-9.6157-2.4924-3.4361-5.9079-8.1395.195-13.9917.6691-.6372 1.7268-.6128 2.364.0522.641.6649.6162 1.7233-.0488 2.3639-3.9999 3.833-2.3325 6.1307.1949 9.6122 2.4931 3.4359 5.908 8.1394-.1949 13.9917-.3238.3098-.7415.463-1.1557.4629z"/><path id="_376944760" d="m106.39 42.2982c-.4387 0-.8776-.1704-1.2084-.5151-.6371-.6652-.6162-1.7234.0523-2.3604 4.0003-3.8367 2.329-6.1343-.1985-9.6157-2.4923-3.4361-5.908-8.1395.1985-13.9917.6649-.6372 1.7232-.6128 2.3604.0522.6412.6649.6162 1.7233-.0488 2.3639-3.9997 3.833-2.3325 6.1307.195 9.6122 2.4964 3.4359 5.9114 8.1394-.195 13.9917-.3237.3098-.7415.463-1.1555.4629z"/><path id="_376944424" d="m126.081 42.2982c-.4387 0-.8778-.1704-1.205-.5151-.6405-.6652-.6162-1.7234.0486-2.3604 4.0006-3.8367 2.3326-6.1343-.1949-9.6157-2.4956-3.4361-5.9115-8.1395.1949-13.9917.6692-.6372 1.7233-.6128 2.3639.0522.6371.6649.6162 1.7233-.0522 2.3639-3.9995 3.833-2.3291 6.1307.1985 9.6122 2.4931 3.4359 5.9079 8.1394-.1985 13.9917-.3235.3098-.7381.463-1.1553.4629z"/><path id="_376944472" d="m41.4967 56.1996c-1.7233 0-3.1235 1.3995-3.1235 3.1229l.0004 92.2536c0 1.7233 1.3992 3.1263 3.1224 3.1263h92.244c1.7232 0 3.1221-1.4029 3.1221-3.1263l.0001-92.2538c0-1.7234-1.3997-3.1227-3.1229-3.1227zm92.2433 101.845h-92.2433c-3.5649 0-6.4657-2.9036-6.4657-6.4685l.0001-92.2538c0-3.565 2.9-6.4649 6.4649-6.4649h92.244c3.5648 0 6.4643 2.9 6.4643 6.4651l.0004 92.2536c0 3.5649-2.9005 6.4685-6.4647 6.4685z"/><path id="_376943512" d="m51.2481 69.7631c-1.4937 0-2.7126 1.222-2.7126 2.7225l.0001 65.9273c0 1.5005 1.2183 2.7225 2.7118 2.7225 1.4977-.0001 2.7156-1.222 2.7156-2.7225l.0002-65.9274c0-1.5005-1.2187-2.7223-2.7151-2.7224zm0 74.7144c-3.3392 0-6.0548-2.7189-6.0548-6.0646l.0007-65.9274c0-3.3423 2.7147-6.0645 6.0534-6.0645 3.3424-.0002 6.0576 2.7224 6.0576 6.0646l.0005 65.9273c0 3.3455-2.716 6.0647-6.0574 6.0646z"/><path id="_376943896" d="m69.4344 69.7631c-1.4969 0-2.7157 1.222-2.7157 2.7225l.0007 65.9273c0 1.5005 1.2179 2.7225 2.7149 2.7225 1.4939-.0001 2.712-1.222 2.712-2.7225l.0007-65.9274c0-1.5005-1.2192-2.7223-2.7126-2.7224zm0 74.7144c-3.3385 0-6.0577-2.7189-6.0577-6.0646l.0004-65.9274c0-3.3423 2.7185-6.0645 6.0572-6.0645 3.3394-.0002 6.054 2.7224 6.054 6.0646l.0003 65.9273c0 3.3455-2.7156 6.0647-6.0542 6.0646z"/><path id="_376943464" d="m87.6183 69.7631c-1.4977 0-2.7127 1.222-2.7127 2.7225l.0001 65.9273c0 1.5005 1.2149 2.7225 2.712 2.7225 1.4975-.0001 2.7119-1.222 2.7119-2.7225l.0005-65.9274c0-1.5005-1.2155-2.7223-2.7118-2.7224zm0 74.7144c-3.3393 0-6.0547-2.7189-6.0547-6.0646l.0005-65.9274c0-3.3423 2.7148-6.0645 6.0536-6.0645 3.3391-.0002 6.0541 2.7224 6.0541 6.0646v65.9273c0 3.3455-2.7155 6.0647-6.0535 6.0646z"/><path id="_376943416" d="m105.801 69.7631c-1.4938 0-2.7124 1.222-2.7124 2.7225l.0006 65.9273c0 1.5005 1.2178 2.7225 2.7114 2.7225 1.4973-.0001 2.7155-1.222 2.7155-2.7225l.0007-65.9274c0-1.5005-1.2192-2.7223-2.7158-2.7224zm0 74.7144c-3.3385 0-6.0545-2.7189-6.0545-6.0646l.0003-65.9274c0-3.3423 2.7151-6.0645 6.0538-6.0645 3.3389-.0002 6.0576 2.7224 6.0576 6.0646l.0001 65.9273c0 3.3455-2.719 6.0647-6.0573 6.0646z"/><path id="_376943608" d="m123.989 69.7631c-1.497 0-2.7161 1.222-2.7161 2.7225l.0002 65.9273c0 1.5005 1.2182 2.7225 2.7153 2.7225 1.4935-.0001 2.712-1.222 2.712-2.7225l.0003-65.9274c0-1.5005-1.2188-2.7223-2.7117-2.7224zm0 74.7144c-3.3393 0-6.0582-2.7189-6.0582-6.0646v-65.9274c0-3.3423 2.7189-6.0645 6.0576-6.0645 3.339-.0002 6.0542 2.7224 6.0542 6.0646l.0006 65.9273c0 3.3455-2.7162 6.0647-6.0542 6.0646z"/><path id="_376943968" d="m36.7028 60.9934h-12.8401c-.9259 0-1.671-.7484-1.671-1.6709.0002-.9228.745-1.6712 1.671-1.6712l12.8401-.0001c.9219 0 1.6704.7486 1.6704 1.6713.0004.9223-.7486 1.6709-1.6704 1.6709zm112.829 0h-10.9978c-.9227 0-1.6717-.7484-1.6717-1.6709.0001-.9228.7485-1.6712 1.671-1.6712l10.9985-.0001c.9259 0 1.6704.7486 1.6704 1.6713.0004.9223-.745 1.6709-1.6704 1.6709zm-112.829 9.7236h-12.8401c-.9259 0-1.671-.7485-1.671-1.6711.0002-.9227.745-1.671 1.671-1.671l12.8401-.0002c.9219 0 1.6704.7486 1.6704 1.6712.0004.9226-.7486 1.6712-1.6704 1.6711zm112.829 0h-10.9978c-.9227 0-1.6717-.7485-1.6717-1.6711.0001-.9227.7485-1.671 1.671-1.671l10.9985-.0002c.9259 0 1.6704.7486 1.6704 1.6712.0004.9226-.745 1.6712-1.6704 1.6711z"/><path id="_376944112" d="m18.8291 58.8558c-2.9382 0-5.3305 2.3918-5.3305 5.3266 0 2.9382 2.3917 5.33 5.33 5.33 2.9356 0 5.3265-2.3917 5.3265-5.33.0005-2.935-2.3916-5.3265-5.326-5.3266zm0 13.9988c-4.7798 0-8.6691-3.8887-8.6691-8.6722.0001-4.7801 3.8887-8.6687 8.6686-8.6687 4.7803-.0001 8.6687 3.8888 8.6687 8.6687.0007 4.7834-3.8888 8.6722-8.6682 8.6722z"/><path id="_376944160" d="m154.565 58.8558c-2.9343 0-5.3267 2.3918-5.3267 5.3266.0001 2.9382 2.3917 5.33 5.3266 5.33 2.9382 0 5.3301-2.3917 5.3301-5.33.0005-2.935-2.3919-5.3265-5.33-5.3266zm0 13.9988c-4.7799 0-8.6689-3.8887-8.6689-8.6722.0007-4.7801 3.8887-8.6687 8.6688-8.6687 4.7806-.0001 8.6721 3.8888 8.6721 8.6687 0 4.7834-3.8922 8.6722-8.672 8.6722z"/><path id="_376944016" d="m36.7028 143.524h-12.8401c-.9259 0-1.671-.7485-1.671-1.6711.0002-.9227.745-1.671 1.671-1.671l12.8401-.0001c.9219 0 1.6704.7486 1.6704 1.6711.0004.9224-.7486 1.6712-1.6704 1.6711zm112.829 0h-10.9978c-.9227 0-1.6717-.7485-1.6717-1.6711.0001-.9227.7485-1.671 1.671-1.671l10.9985-.0001c.9259 0 1.6704.7486 1.6704 1.6711.0004.9224-.745 1.6712-1.6704 1.6711zm-112.829 9.7236h-12.8401c-.9259 0-1.671-.7485-1.671-1.6711.0002-.9225.745-1.671 1.671-1.671h12.8401c.9219 0 1.6704.7485 1.6704 1.671.0004.9225-.7486 1.6711-1.6704 1.6711zm112.829 0h-10.9978c-.9227 0-1.6717-.7485-1.6717-1.6711.0001-.9225.7485-1.671 1.671-1.671h10.9985c.9259 0 1.6704.7485 1.6704 1.671.0004.9225-.745 1.6711-1.6704 1.6711z"/><path id="_376943848" d="m18.8291 141.386c-2.9382 0-5.3305 2.3919-5.3305 5.3301 0 2.9348 2.3917 5.3267 5.33 5.3267 2.9356-.0001 5.3265-2.3918 5.3265-5.3267.0005-2.9384-2.3916-5.33-5.326-5.3301zm0 13.9989c-4.7798 0-8.6691-3.8887-8.6691-8.6688.0001-4.78 3.8887-8.672 8.6686-8.672 4.7803 0 8.6687 3.8921 8.6687 8.672.0007 4.78-3.8888 8.6688-8.6682 8.6688z"/><path id="_376942816" d="m154.565 141.386c-2.9343 0-5.3267 2.3919-5.3267 5.3301.0001 2.9348 2.3917 5.3267 5.3266 5.3267 2.9382-.0001 5.3301-2.3918 5.3301-5.3267.0005-2.9384-2.3919-5.33-5.33-5.3301zm0 13.9989c-4.7799 0-8.6689-3.8887-8.6689-8.6688.0007-4.78 3.8887-8.672 8.6688-8.672 4.7806 0 8.6721 3.8921 8.6721 8.672 0 4.78-3.8922 8.6688-8.672 8.6688z"/></g></g></svg>