<svg id="Capa_1" enable-background="new 0 0 512 512" height="512" viewBox="0 0 512 512" width="512" xmlns="http://www.w3.org/2000/svg"><g><path d="m104 400c-8.284 0-15 6.716-15 15v82h30v-82c0-8.284-6.716-15-15-15z" fill="#2d2755"/><path d="m408 400c-8.284 0-15 6.716-15 15v82h30v-82c0-8.284-6.716-15-15-15z" fill="#2d2755"/><path d="m456 512h-400c-8.284 0-15-6.716-15-15s6.716-15 15-15h400c8.284 0 15 6.716 15 15s-6.716 15-15 15z" fill="#453d83"/><path d="m15 70h81v70h-81z" fill="#ff3939"/><path d="m15 290h81v70h-81z" fill="#d0004f"/><path d="m497 140h-81v-70h81c8.284 0 15 6.716 15 15v40c0 8.284-6.716 15-15 15z" fill="#ff3939"/><path d="m497 360h-81v-70h81c8.284 0 15 6.716 15 15v40c0 8.284-6.716 15-15 15z" fill="#d0004f"/><path d="m104 430c-20.987 0-38-17.013-38-38v-354c0-20.987 17.013-38 38-38 20.987 0 38 17.013 38 38v354c0 20.987-17.013 38-38 38z" fill="#ff7c48"/><path d="m180 430c-20.987 0-38-17.013-38-38v-354c0-20.987 17.013-38 38-38 20.987 0 38 17.013 38 38v354c0 20.987-17.013 38-38 38z" fill="#ff3939"/><path d="m256 430c-20.987 0-38-17.013-38-38v-354c0-20.987 17.013-38 38-38 20.987 0 38 17.013 38 38v354c0 20.987-17.013 38-38 38z" fill="#ff7c48"/><path d="m332 430c-20.987 0-38-17.013-38-38v-354c0-20.987 17.013-38 38-38 20.987 0 38 17.013 38 38v354c0 20.987-17.013 38-38 38z" fill="#ff3939"/><path d="m408 430c-20.987 0-38-17.013-38-38v-354c0-20.987 17.013-38 38-38 20.987 0 38 17.013 38 38v354c0 20.987-17.013 38-38 38z" fill="#ff7c48"/><path d="m370 215v177c0 20.987 17.013 38 38 38 20.987 0 38-17.013 38-38v-177z" fill="#ff3939"/><path d="m294 215v177c0 20.987 17.013 38 38 38 20.987 0 38-17.013 38-38v-177z" fill="#d0004f"/><path d="m218 215v177c0 20.987 17.013 38 38 38 20.987 0 38-17.013 38-38v-177z" fill="#ff3939"/><path d="m142 215v177c0 20.987 17.013 38 38 38 20.987 0 38-17.013 38-38v-177z" fill="#d0004f"/><path d="m66 215v177c0 20.987 17.013 38 38 38 20.987 0 38-17.013 38-38v-177z" fill="#ff3939"/><path d="m15 170c-8.284 0-15-6.716-15-15v-100c0-8.284 6.716-15 15-15s15 6.716 15 15v100c0 8.284-6.716 15-15 15z" fill="#6a61b4"/><path d="m15 390c-8.284 0-15-6.716-15-15v-100c0-8.284 6.716-15 15-15s15 6.716 15 15v100c0 8.284-6.716 15-15 15z" fill="#453d83"/></g></svg>