<svg clip-rule="evenodd" fill-rule="evenodd" height="512" image-rendering="optimizeQuality" shape-rendering="geometricPrecision" text-rendering="geometricPrecision" viewBox="0 0 1.70666 1.70666" width="512" xmlns="http://www.w3.org/2000/svg"><g id="Layer_x0020_1"><g id="_659363416"><path id="_659365240" d="m1.61559 1.63513h-1.52453c-.0107874 0-.0195394-.00875197-.0195394-.0195394v-1.38122c0-.0897913.0730551-.162839.162846-.162839l1.23756-.00000394c.0899882 0 .163193.0732087.163193.163193v1.38087c.00000394.0107874-.00874803.0195394-.0195354.0195394z" fill="#3e5286"/><g fill="#62739d"><path id="_659365048" d="m.0715276 1.54097v-.142311h.388075c.0154409 0 .0279606.00874803.0279606.0195394v.103228c0 .0107913-.0125157.0195433-.0279606.0195433h-.388075z"/><path id="_659365024" d="m1.63513 1.39866v.142311h-.330437c-.0134724 0-.0243937-.00875197-.0243937-.0195433v-.103228c0-.0107913.0109213-.0195394.0243937-.0195394h.330437z"/><path id="_659365168" d="m.0715276.673874v-.142307h.335295c.0107913 0 .0195433.00875197.0195433.0195394v.103228c0 .0107913-.00874803.0195394-.0195433.0195394h-.335295z"/><path id="_659365264" d="m1.63513.531567v.142307h-.335291c-.0107913 0-.0195394-.00874803-.0195394-.0195394v-.103224c0-.0107913.00874803-.0195433.0195394-.0195433h.335291z"/></g><path id="_659364160" d="m1.29984 1.63513h-.893016c-.0107874 0-.0195394-.00875197-.0195394-.0195394v-1.15865c0-.0107913.00875197-.0195394.0195394-.0195394h.893012c.0107913 0 .0195394.00874803.0195394.0195394v1.15865c.00000394.0107874-.00874409.0195394-.0195354.0195394z" fill="#dcebf8"/><path id="_659363896" d="m.852772 1.63513c-.0107913 0-.0195394-.00875197-.0195394-.0195394v-1.04583c0-.0107913.00874803-.0195394.0195394-.0195394.0107913 0 .0195394.00874803.0195394.0195394v1.04583c0 .0107913-.00874803.0195433-.0195394.0195433z" fill="#62739d"/><path id="_659364088" d="m1.35498.589299h-1.00331c-.012122 0-.0219528-.00874803-.0219528-.0195394 0-.0107913.00983071-.0195394.0219528-.0195394h1.0033c.012122 0 .0219528.00874803.0219528.0195394 0 .0107913-.00982677.0195394-.0219488.0195394z" fill="#62739d"/><path id="_659364328" d="m1.55648.984543c-.00001968 0-.00004724 0-.00006693 0h-.158386c-.00762598 0-.0145512-.00443307-.0177441-.0113504-.00319291-.00692126-.00207087-.0150709.00287402-.0208661l.0791929-.0928504c.00371654-.00435039.00914567-.00685827.0148661-.00685827.00572047 0 .0111535.00250787.0148661.00685827l.0783189.0918189c.00347244.00352756.00561417.00836614.00561417.0137087.00000394.0107913-.00874016.0195394-.0195354.0195394z" fill="#fdbd25"/><path id="_659363920" d="m1.47722 1.21993c-.00572047 0-.0111535-.00250787-.0148661-.00685827l-.079189-.0928504c-.00494882-.00580315-.00606693-.0139449-.00287795-.0208661.00319291-.00692126.0101181-.0113543.0177441-.0113543h.158386c.00762598 0 .0145512.00443307.0177441.0113504.00319291.00692126.00207087.0150709-.00287402.0208661l-.0791969.0928543c-.00371654.00435433-.00914567.00685827-.0148701.00685827z" fill="#fdbd25"/><path id="_659364424" d="m1.17968.352323h-.652705c-.0107874 0-.0195394-.00875197-.0195394-.0195433v-.156618c0-.0107913.00875197-.0195433.0195394-.0195433h.652709c.0107874 0 .0195394.00875197.0195394.0195433v.156618c-.00000394.0107913-.00875197.0195433-.0195433.0195433z" fill="#fdbd25"/><path id="_659363944" d="m.87287.352323h-.039079v-.195705h.039079z" fill="#fdaa21"/><path id="_659363872" d="m1.68706 1.63513h-1.66745c-.0107913 0-.0195433-.00875197-.0195433-.0195394 0-.0107913.00875197-.0195433.0195433-.0195433h1.66745c.0107913 0 .0195433.00875197.0195433.0195433 0 .0107874-.00874803.0195394-.0195433.0195394z" fill="#62739d"/><path id="_659364544" d="m.833232 1.45672v.139327h.0390787v-.111996c-.0132087-.00905118-.0262323-.0181614-.0390787-.0273307z" fill="#5b6a8b"/><path id="_659363320" d="m.833232 1.59605h-.445949-.315756-.0519213c-.0107913 0-.0195433.00875197-.0195433.0195433 0 .0107874.00875197.0195394.0195433.0195394h.0714606.315756.445949.269724c-.0241969-.012811-.0479094-.0258465-.0711457-.0390827h-.179039-.0390787z" fill="#5b6a8b"/><path id="_659363128" d="m.387283 1.0444v.35426.142311.0550787h.445949v-.139327c-.18298-.130618-.329354-.272768-.445949-.412323z" fill="#cedbe7"/><path id="_659363608" d="m.387283 1.54097h-.3157554v.05508h.3157554z" fill="#3a4c7b"/><path id="_659363656" d="m.387283 1.39866h-.3157554v.14231h.3157554z" fill="#5d6d92"/><path id="_659363512" d="m.0715276.673874v.724787h.315756v-.35426c-.108189-.1295-.190736-.256768-.253098-.370528h-.0626575z" fill="#3a4c7b"/><path id="_659363752" d="m.0715276.55063v.123244h.0626575c-.0237008-.0432402-.0444882-.0845276-.0626575-.123244z" fill="#5d6d92"/><path id="_659363080" d="m.872311 1.48406v.111996h.179039c-.0279173-.0156772-.179039-.111996-.179039-.111996z" fill="#cedbe7"/></g></g></svg>