<svg height="512" viewBox="0 0 45 58" width="512" xmlns="http://www.w3.org/2000/svg"><g id="Page-1" fill="none" fill-rule="evenodd"><g id="030---Tools" fill-rule="nonzero" transform="translate(-1)"><path id="Shape" d="m44.34 8.88-1.94 2.59c-.2616839.3451202-.402275.7668935-.4 1.2v14.33h-4v-14.33c.002275-.4331065-.1383161-.8548798-.4-1.2l-1.94-2.59c-.4072064-.5496422-.5123112-1.26660653-.28-1.91l2.376-6.322c.1466087-.38984584.519498-.648.936-.648h2.616c.416502 0 .7893913.25815416.936.648l2.376 6.322c.2323112.64339347.1272064 1.3603578-.28 1.91z" fill="#95a5a5"/><path id="Shape" d="m22.99 10-4.44-8.89c-.33773-.67965768-1.031056-1.10959727-1.79-1.11h-.77c-1.1032019.0032948-1.9967052.89679813-2 2-.0032948-1.10320187-.8967981-1.9967052-2-2h-.76c-.7596843-.00220189-1.45427401.42852131-1.79 1.11l-4.45 8.89c-.95336481 1.7188098-1.17249074 3.7496993-.60770692 5.6323121.56478382 1.8826127 1.86564468 3.4575062 3.60770692 4.3676879h12c1.7420622-.9101817 3.0429231-2.4850752 3.6077069-4.3676879.5647838-1.8826128.3456579-3.9135023-.6077069-5.6323121zm-9 6c-1.6568542 0-3-1.3431458-3-3s1.3431458-3 3-3 3 1.3431458 3 3-1.3431458 3-3 3z" fill="#95a5a5"/><path id="Shape" d="m13.53 26c-6.84 6.84-7.69 18.33-5.32 28.31.38189777 1.6095991-.61124283 3.224571-2.22 3.61-.22995344.0507154-.46453343.0775245-.7.08-1.39031686-.0023609-2.59773654-.9575456-2.92-2.31-3.63-15.28.65-25.26 3.91-30.22v-.01z" fill="#c03a2b"/><path id="Shape" d="m21.7 25.47c3.26 4.96 7.54 14.94 3.91 30.22-.3222635 1.3524544-1.5296831 2.3076391-2.92 2.31-.2354666-.0024755-.4700466-.0292846-.7-.08-1.6087572-.385429-2.6018978-2.0004009-2.22-3.61 2.41-10.08 1.67-20.33-5.32-28.31z" fill="#c03a2b"/><path id="Shape" d="m46 35.1v18.9c0 2.209139-1.790861 4-4 4h-4c-2.209139 0-4-1.790861-4-4v-18.9c.0021954-.703084.291124-1.3748431.8-1.86.5110372-.4836507.8003844-1.156383.8-1.86.0012898-.3551281-.0737366-.7063881-.22-1.03l-1.13-2.54c-.2741104-.6188236-.2166526-1.3342957.1527004-1.9014442.369353-.5671486 1.0004843-.9090183 1.6772996-.9085558h7.84c.6768153-.0004625 1.3079466.3414072 1.6772996.9085558.369353.5671485.4268108 1.2826206.1527004 1.9014442l-1.13 2.54c-.4366074.9891285-.2044471 2.1459274.58 2.89.508876.4851569.7978046 1.156916.8 1.86z" fill="#f29c1f"/><path id="Shape" d="m40 54c-.5522847 0-1-.4477153-1-1v-17c0-.5522847.4477153-1 1-1s1 .4477153 1 1v17c0 .5522847-.4477153 1-1 1z" fill="#e57e25"/><path id="Shape" d="m22.99 23c.0046687.7964445-.3126865 1.5609821-.88 2.12-.1273037.1272089-.2643909.2442345-.41.35-.5031374.3458375-1.0994672.5306649-1.71.53h-12c-.6122552.0020021-1.20993332-.1867384-1.71-.54-1.07326013-.7491324-1.53697947-2.1075984-1.14580099-3.3566245.39117849-1.249026 1.54695526-2.1002872 2.85580099-2.1033755h12c1.6568542 0 3 1.3431458 3 3z" fill="#e64c3c"/><path id="Shape" d="m19.99 20h-6v-4c1.6568542 0 2.9999999-1.3431458 2.9999999-3s-1.3431457-3-2.9999999-3v-8c.0032948-1.10320187.8967981-1.9967052 2-2h.77c.758944.00040273 1.45227.43034232 1.79 1.11l4.44 8.89c.9533648 1.7188098 1.1724907 3.7496993.6077069 5.6323121-.5647838 1.8826127-1.8656447 3.4575062-3.6077069 4.3676879z" fill="#7f8c8d"/></g></g></svg>