<svg id="Capa_1" enable-background="new 0 0 512 512" height="512" viewBox="0 0 512 512" width="512" xmlns="http://www.w3.org/2000/svg"><g><g id="Page-1_29_"><g id="_x30_30---Tools" transform="translate(-1)"><path id="Shape_135_" d="m338.084 308.053v161.28c.028 23.552 19.114 42.638 42.667 42.667h34.133c23.552-.028 42.638-19.114 42.667-42.667v-161.28c-.017-8.328-3.435-16.287-9.463-22.033-4.083-3.874-5.286-9.899-3.004-15.044l9.617-21.641c3.523-7.922 2.797-17.088-1.929-24.356s-12.809-11.651-21.478-11.646h-7.876v-96.708c.004-1.846.602-3.641 1.707-5.12l16.58-22.101c5.256-6.982 6.573-16.168 3.49-24.346l-22.315-59.52c-1.249-3.333-4.436-5.54-7.996-5.538h-34.133c-3.559-.002-6.746 2.205-7.996 5.538l-22.315 59.52c-3.081 8.178-1.764 17.363 3.49 24.346l16.58 22.101c1.105 1.479 1.703 3.274 1.707 5.12v96.708h-7.876c-8.666-.001-16.744 4.382-21.467 11.647s-5.45 16.427-1.932 24.346l9.617 21.641c2.284 5.149 1.077 11.179-3.012 15.053-6.027 5.746-9.446 13.706-9.463 22.033zm46.08-206.788-16.572-22.101c-1.749-2.332-2.187-5.395-1.161-8.124l20.233-53.973h22.306l20.241 53.973c1.026 2.728.588 5.792-1.161 8.124l-16.58 22.101c-3.317 4.435-5.113 9.822-5.12 15.36v96.708h-17.067v-96.708c-.006-5.538-1.802-10.925-5.119-15.36zm-29.013 206.788c.011-3.646 1.505-7.13 4.139-9.651 9.314-8.858 12.048-22.618 6.827-34.364l-9.617-21.641c-1.176-2.647-.929-5.709.655-8.133 1.585-2.424 4.291-3.879 7.187-3.864h66.953c2.889 0 5.581 1.461 7.156 3.882 1.574 2.422 1.817 5.476.644 8.115l-9.617 21.641c-5.212 11.744-2.479 25.496 6.827 34.355 2.652 2.516 4.162 6.005 4.181 9.66v161.28c0 14.138-11.462 25.6-25.6 25.6h-34.133c-14.138 0-25.6-11.462-25.6-25.6v-161.28z"/><path id="Shape_134_" d="m397.817 469.333c4.713 0 8.533-3.82 8.533-8.533v-145.067c0-4.713-3.82-8.533-8.533-8.533s-8.533 3.82-8.533 8.533v145.067c0 4.713 3.821 8.533 8.533 8.533z"/><path id="Shape_133_" d="m260.337 90.052-37.914-75.887c-4.305-8.701-13.186-14.196-22.895-14.165h-6.562c-6.318.022-12.402 2.395-17.067 6.656-4.664-4.261-10.748-6.634-17.066-6.656h-6.554c-9.714-.033-18.6 5.461-22.912 14.165l-37.897 75.87c-15.928 28.622-9.809 64.469 14.711 86.187-8.357 5.331-13.953 14.061-15.306 23.881-1.354 9.82 1.672 19.738 8.275 27.131-26.453 42.965-61.44 129.254-30.72 258.5 3.648 15.4 17.403 26.272 33.229 26.266 2.685-.025 5.359-.334 7.979-.922 18.248-4.458 29.506-22.776 25.242-41.071-22.571-94.78-7.245-180.727 40.841-231.074h.068c49.758 58.829 63.65 136.533 41.122 231.091-4.262 18.388 7.132 36.764 25.498 41.122 2.537.555 5.126.841 7.723.853 15.835.025 29.601-10.86 33.229-26.274 30.72-129.22-4.267-215.518-30.72-258.492 6.612-7.392 9.645-17.313 8.296-27.139-1.349-9.825-6.943-18.563-15.302-23.899 24.489-21.716 30.602-57.532 14.702-86.143zm-67.371-72.985h6.562c3.231.002 6.184 1.828 7.629 4.719l37.922 75.947c14.236 25.848 5.071 58.337-20.574 72.934h-40.107v-18.278c15.055-3.832 25.592-17.387 25.592-32.922s-10.538-29.09-25.592-32.922v-60.945c0-2.269.904-4.445 2.511-6.046 1.609-1.601 3.788-2.496 6.057-2.487zm34.134 204.8h-102.4c-9.426 0-17.067-7.641-17.067-17.067s7.641-17.067 17.067-17.067h102.4c9.426 0 17.067 7.641 17.067 17.067-.001 9.426-7.642 17.067-17.067 17.067zm-51.2-119.467c9.426 0 17.067 7.641 17.067 17.067s-7.641 17.067-17.067 17.067-17.067-7.641-17.067-17.067 7.641-17.067 17.067-17.067zm-69.12-4.719 37.854-75.895c1.453-2.907 4.43-4.737 7.68-4.719h6.554c4.713 0 8.533 3.821 8.533 8.533v60.945c-15.055 3.832-25.592 17.387-25.592 32.922s10.537 29.09 25.592 32.922v18.278h-40.09c-25.675-14.599-34.845-47.126-20.574-72.986zm11.485 376.261c2.152 9.062-3.358 18.175-12.382 20.48-1.387.314-2.802.483-4.224.503-7.918.001-14.797-5.443-16.614-13.15-29.15-122.709 3.319-204.203 28.262-244.907 3.649 1.341 7.504 2.04 11.392 2.065h28.459c-43.972 55.467-57.156 141.483-34.893 235.009zm148.48 7.833c-1.008 4.438-3.758 8.284-7.63 10.675s-8.542 3.126-12.961 2.04c-9.13-2.222-14.773-11.376-12.655-20.531 22.187-93.013 9.668-173.798-35.925-235.025h29.508c3.893-.037 7.75-.747 11.401-2.099 24.951 40.755 57.421 122.257 28.279 244.941h-.017z"/></g></g></g></svg>