<svg id="Layer_1" enable-background="new 0 0 512 512" height="512" viewBox="0 0 512 512" width="512" xmlns="http://www.w3.org/2000/svg"><g><g><g><path d="m23.648 488.351c-30.778-30.779-29.017-81.197 3.834-109.753l162.475-141.234 84.668 84.671-141.229 162.482c-28.554 32.851-78.971 34.613-109.748 3.834z" fill="#ff9d00"/><path d="m27.482 378.598 105.915 105.918-3.83 3.83c-29.25 29.251-76.674 29.251-105.923 0-29.298-29.299-29.243-76.819.123-106.05z" fill="#ff6a45"/></g><g><path d="m237.223 135.059h239.026v40.42h-239.026z" fill="#a4c3d6" transform="matrix(.707 -.707 .707 .707 -5.309 297.721)"/><path d="m327.257 225.871-41.135-41.136c-4.423-4.423-11.589-4.423-16.012 0l-45.15 45.15 57.162 57.164 45.135-45.135c4.429-4.429 4.429-11.614 0-16.043z" fill="#ff6a45"/><path d="m445.655 91.199-24.85-24.851c-8.064-8.064-7.021-21.425 2.198-28.14l49.465-38.208 39.532 39.534-38.206 49.467c-6.715 9.219-20.075 10.262-28.139 2.198z" fill="#cbe1ef"/></g></g><g><g><path d="m223.809 85.742h72.172v348.325h-72.172z" fill="#688ea6" transform="matrix(.707 -.707 .707 .707 -107.659 259.905)"/><path d="m176.801 125.022v-63.848c0-6.011-2.388-11.777-6.638-16.027l-38.508-38.508c-4.25-4.251-10.015-6.639-16.026-6.639h-47.439c-5.048 0-7.576 6.104-4.007 9.673l43.849 43.851c4.426 4.426 4.426 11.601 0 16.027l-37.025 37.026c-4.426 4.426-11.601 4.426-16.027 0l-45.307-45.31c-3.57-3.569-9.673-1.041-9.673 4.007v50.359c0 6.011 2.388 11.777 6.638 16.027l38.507 38.508c4.251 4.251 10.015 6.639 16.027 6.639h63.845z" fill="#cbe1ef"/><g><path d="m170.162 45.147-38.507-38.508c-4.25-4.251-10.015-6.639-16.026-6.639h-41.207c6.011 0 11.776 2.388 16.027 6.639l38.507 38.508c4.251 4.251 6.638 10.016 6.638 16.027v63.847l-51.784 51.786h41.207l51.784-51.786v-63.847c0-6.011-2.388-11.776-6.639-16.027z" fill="#badbef"/></g><path d="m380.345 341.85-38.507 38.508c-4.251 4.251-6.638 10.016-6.638 16.027v54.459c0 6.011 2.388 11.777 6.638 16.027l38.489 38.49c4.261 4.262 10.044 6.65 16.071 6.639l54.792-.107c5.996-.012 11.743-2.399 15.982-6.639l38.19-38.191c4.251-4.251 6.638-10.016 6.638-16.027v-54.65c0-6.011-2.388-11.777-6.638-16.027l-38.507-38.508c-4.251-4.251-10.015-6.639-16.027-6.639h-54.457c-6.011-.001-11.776 2.387-16.026 6.638zm97.658 68.618v26.485c0 6.011-2.388 11.777-6.638 16.027l-18.302 18.303c-4.24 4.24-9.987 6.627-15.982 6.639l-26.628.052c-6.026.012-11.809-2.377-16.071-6.639l-18.546-18.546c-4.251-4.251-6.638-10.016-6.638-16.027v-26.293c0-6.011 2.388-11.777 6.638-16.027l18.592-18.592c4.251-4.251 10.015-6.639 16.027-6.639h26.292c6.011 0 11.776 2.388 16.027 6.639l18.592 18.592c4.249 4.25 6.637 10.015 6.637 16.026z" fill="#cbe1ef"/><g><path d="m505.362 380.358-38.507-38.508c-4.25-4.251-10.015-6.639-16.027-6.639h-41.207c6.011 0 11.776 2.388 16.027 6.639l38.507 38.508c3.615 3.615 5.883 8.327 6.48 13.353l.73.73c4.251 4.251 6.638 10.016 6.638 16.027v26.485c0 6.011-2.388 11.777-6.638 16.027l-.73.73c-.597 5.026-2.865 9.737-6.48 13.353l-38.19 38.191c-4.24 4.24-9.987 6.627-15.982 6.639l-15.49.03c.631.052 1.267.078 1.905.077l54.792-.107c5.996-.012 11.743-2.399 15.982-6.639l38.19-38.191c4.251-4.251 6.638-10.016 6.638-16.027v-54.65c0-6.012-2.388-11.777-6.638-16.028z" fill="#badbef"/></g></g><path d="m331.346 320.431-144.262-144.267c-3.017-3.018-7.909-3.018-10.927 0-3.018 3.017-3.018 7.909 0 10.927l144.263 144.267c1.509 1.509 3.486 2.263 5.463 2.263s3.955-.755 5.463-2.263c3.018-3.017 3.018-7.909 0-10.927z" fill="#fff"/></g></g></svg>