<svg clip-rule="evenodd" fill-rule="evenodd" height="512" image-rendering="optimizeQuality" shape-rendering="geometricPrecision" text-rendering="geometricPrecision" viewBox="0 0 512 512" width="512" xmlns="http://www.w3.org/2000/svg"><g id="Layer_x0020_1"><g id="_528039384"><g><g id="_528037992"><path id="_267622520" d="m493.7 511.999h-475.399c-3.30001 0-6.00002-2.70001-6.00002-6.00002v-499.999c0-3.30001 2.70001-6.00002 6.00002-6.00002h475.399c3.30001 0 6.00002 2.70001 6.00002 6.00002v499.999c0 3.30001-2.70001 6.00002-6.00002 6.00002zm-469.399-12h463.399v-487.999h-463.399z"/></g><g id="_528038040"><path id="_267613904" d="m493.7 511.999c-3.30001 0-6.00002-2.70001-6.00002-6.00002v-363.999h-223.4v363.999c0 3.30001-2.70001 6.00002-6.00002 6.00002s-5.99884-2.70001-5.99884-6.00002v-369.999c0-3.30001 2.69883-6.00002 5.99884-6.00002h235.4c3.30001 0 6.00002 2.70001 6.00002 6.00002v369.999c0 3.30001-2.70001 6.00002-6.00002 6.00002z"/></g><g id="_528037512"><path id="_267613400" d="m258.3 333.999h-239.998c-3.30001 0-6.00002-2.70001-6.00002-6.00002s2.70001-6.00002 6.00002-6.00002h239.998c3.30001 0 6.00002 2.70001 6.00002 6.00002s-2.59961 6.00002-6.00002 6.00002z"/></g><g id="_528038136"><path id="_267614096" d="m171.101 333.999c-3.30001 0-6.00002-2.70001-6.00002-6.00002v-321.999c0-3.30001 2.70001-6.00002 6.00002-6.00002s6.00002 2.70001 6.00002 6.00002v321.999c0 3.30001-2.70001 6.00002-6.00002 6.00002z"/></g><g id="_528037680"><path id="_267613616" d="m105.501 333.999c-3.30001 0-6.00002-2.70001-6.00002-6.00002v-321.999c0-3.30001 2.70001-6.00002 6.00002-6.00002s6.00002 2.70001 6.00002 6.00002v321.999c0 3.30001-2.70001 6.00002-6.00002 6.00002z"/></g><g id="_528037800"><path id="_267612704" d="m408.8 142c-3.30001 0-6.00002-2.70001-6.00002-6.00002v-130c0-3.30001 2.70001-6.00002 6.00002-6.00002s6.00002 2.70001 6.00002 6.00002v130c0 3.30001-2.70001 6.00002-6.00002 6.00002z"/></g><g id="_528038640"><path id="_267612656" d="m343.2 142c-3.30001 0-6.00002-2.70001-6.00002-6.00002v-130c0-3.30001 2.70001-6.00002 6.00002-6.00002s6.00002 2.70001 6.00002 6.00002v130c0 3.30001-2.70001 6.00002-6.00002 6.00002z"/></g><g id="_528038616"><path id="_267612800" d="m58.401 381.099c-1.5 0-3.1004-.600002-4.20001-1.80001-2.29961-2.29961-2.29961-6.10041 0-8.50042l15.7997-15.7004c2.29961-2.29961 6.10041-2.29961 8.50042 0 2.29961 2.29961 2.29961 6.10041 0 8.50042l-15.7997 15.7997c-1.2 1.2-2.8004 1.70079-4.30041 1.70079z"/></g><g id="_528038784"><path id="_267612608" d="m138.302 402.399c-1.5 0-3.1004-.600002-4.20001-1.80001-2.29961-2.29961-2.29961-6.10041 0-8.50042l15.7997-15.7997c2.29961-2.29961 6.10041-2.29961 8.50042 0 2.29961 2.29961 2.29961 6.10041 0 8.50042l-15.7997 15.7997c-1.20118 1.29922-2.70119 1.80001-4.30041 1.80001z"/></g><g id="_528039408"><path id="_267612416" d="m431.4 200.699c-1.5 0-3.1004-.600002-4.20001-1.80001-2.29961-2.29961-2.29961-6.10041 0-8.50042l15.7997-15.7997c2.29961-2.29961 6.10041-2.29961 8.50042 0 2.29961 2.29961 2.29961 6.10041 0 8.50042l-15.9 15.9c-1.2 1.2-2.70001 1.69961-4.20001 1.69961z"/></g><g id="_528039480"><path id="_267612104" d="m439.301 381.099c-1.5 0-3.1004-.600002-4.20001-1.80001-2.29961-2.29961-2.29961-6.10041 0-8.50042l15.7997-15.7997c2.29961-2.29961 6.10041-2.29961 8.50042 0 2.29961 2.29961 2.29961 6.10041 0 8.50042l-15.7997 15.7997c-1.3004 1.29922-2.8004 1.80001-4.30041 1.80001z"/></g><g id="_528039216"><path id="_267612032" d="m400.9 318.199c-1.5 0-3.1004-.600002-4.20001-1.80001-2.29961-2.29961-2.29961-6.10041 0-8.50042l15.7997-15.7997c2.29961-2.29961 6.10041-2.29961 8.50042 0 2.29961 2.29961 2.29961 6.10041 0 8.50042l-15.7997 15.7997c-1.20118 1.2-2.8004 1.80001-4.30041 1.80001z"/></g><g id="_528039288"><path id="_267611432" d="m291.7 192.8c-1.5 0-3.1004-.600002-4.20001-1.80001-2.29961-2.29961-2.29961-6.10041 0-8.50042l15.7997-15.7997c2.29961-2.29961 6.10041-2.29961 8.50042 0 2.29961 2.29961 2.29961 6.10041 0 8.50042l-15.7997 15.7997c-1.2 1.29922-2.8004 1.80001-4.30041 1.80001z"/></g><g id="_528039336"><path id="_267609008" d="m307.8 390.699c-1.5 0-3.1004-.600002-4.20001-1.80001-2.29961-2.29961-2.29961-6.10041 0-8.50042l15.7997-15.7997c2.29961-2.29961 6.10041-2.29961 8.50042 0s2.29961 6.10041 0 8.50042l-15.9 15.8989c-1.09961 1.10079-2.70001 1.70079-4.20001 1.70079z"/></g><g id="_528040080"><path id="_267608408" d="m423.5 462.698c-1.5 0-3.1004-.600002-4.20001-1.80001-2.29961-2.29961-2.29961-6.10041 0-8.50042l15.7997-15.7997c2.29961-2.29961 6.10041-2.29961 8.50042 0 2.29961 2.29961 2.29961 6.10041 0 8.50042l-15.9 15.9c-1.2 1.09961-2.70001 1.69961-4.20001 1.69961z"/></g><g id="_528039864"><path id="_267608744" d="m194.601 473.099c-1.5 0-3.1004-.600002-4.20001-1.80001-2.29961-2.29961-2.29961-6.10041 0-8.50042l15.7997-15.7997c2.29961-2.29961 6.10041-2.29961 8.50042 0 2.29961 2.29961 2.29961 6.10041 0 8.50042l-15.7997 15.7997c-1.3004 1.2-2.8004 1.80001-4.30041 1.80001z"/></g><g id="_528040320"><path id="_267608216" d="m97.6007 473.099c-1.5 0-3.1004-.600002-4.20001-1.80001-2.29961-2.29961-2.29961-6.10041 0-8.50042l15.8008-15.7997c2.29961-2.29961 6.10041-2.29961 8.50042 0 2.29961 2.29961 2.29961 6.10041 0 8.50042l-15.7997 15.7997c-1.20118 1.2-2.70119 1.80001-4.30159 1.80001z"/></g><g id="_528040104"><path id="_267607328" d="m64.0006 438.999c-7.80002 0-14.2004-6.40041-14.2004-14.2004 0-7.80002 6.40041-14.2004 14.2004-14.2004 7.80002 0 14.2004 6.40041 14.2004 14.2004 0 7.80002-6.40041 14.2004-14.2004 14.2004zm0-16.4008c-1.2 0-2.2004 1.0004-2.2004 2.2004s1.0004 2.2004 2.2004 2.2004 2.2004-1.0004 2.2004-2.2004-1.0004-2.2004-2.2004-2.2004z"/></g><g id="_528039912"><path id="_267607832" d="m218.601 399.198c-7.80002 0-14.2004-6.40041-14.2004-14.2004 0-7.80002 6.40041-14.2004 14.2004-14.2004 7.80002 0 14.2004 6.40041 14.2004 14.2004-.00118111 7.80121-6.40041 14.2004-14.2004 14.2004zm0-16.3997c-1.2 0-2.2004 1.0004-2.2004 2.2004s1.0004 2.2004 2.2004 2.2004 2.2004-1.0004 2.2004-2.2004c-.00118111-1.2-1.0004-2.2004-2.2004-2.2004z"/></g><g id="_528039936"><path id="_267607520" d="m376 225.6c-7.80002 0-14.2004-6.40041-14.2004-14.2004 0-7.80002 6.40041-14.2004 14.2004-14.2004 7.80002 0 14.2004 6.40041 14.2004 14.2004 0 7.80002-6.3012 14.2004-14.2004 14.2004zm0-16.3997c-1.2 0-2.2004 1.0004-2.2004 2.2004s1.0004 2.2004 2.2004 2.2004 2.2004-1.0004 2.2004-2.2004-1.0004-2.2004-2.2004-2.2004z"/></g><g id="_528039960"><path id="_267607568" d="m348.7 473.399c-7.80002 0-14.2004-6.40041-14.2004-14.2004 0-7.80002 6.40041-14.2004 14.2004-14.2004 7.80002 0 14.2004 6.40041 14.2004 14.2004-.00118111 7.80002-6.3012 14.2004-14.2004 14.2004zm0-16.4008c-1.2 0-2.2004 1.0004-2.2004 2.2004s1.0004 2.2004 2.2004 2.2004 2.2004-1.0004 2.2004-2.2004c-.00118111-1.2-.901184-2.2004-2.2004-2.2004z"/></g><g id="_528041160"><path id="_267606560" d="m376 402.699c-7.80002 0-14.2004-6.40041-14.2004-14.2004 0-7.80002 6.40041-14.2004 14.2004-14.2004 7.80002 0 14.2004 6.40041 14.2004 14.2004-.00118111 7.90042-6.3012 14.2004-14.2004 14.2004zm0-16.4008c-1.2 0-2.2004 1.0004-2.2004 2.2004s1.0004 2.2004 2.2004 2.2004 2.2004-1.0004 2.2004-2.2004c-.00118111-1.2-1.0004-2.2004-2.2004-2.2004z"/></g><g id="_528040800"><path id="_267606656" d="m323.899 302.399c-7.80002 0-14.2004-6.40041-14.2004-14.2004 0-7.80002 6.40041-14.2004 14.2004-14.2004 7.80002 0 14.2004 6.40041 14.2004 14.2004 0 7.80002-6.40041 14.2004-14.2004 14.2004zm0-16.3997c-1.2 0-2.2004 1.0004-2.2004 2.2004s1.0004 2.2004 2.2004 2.2004 2.2004-1.0004 2.2004-2.2004-1.0004-2.2004-2.2004-2.2004z"/></g></g></g></g></svg>