<svg clip-rule="evenodd" fill-rule="evenodd" height="512" image-rendering="optimizeQuality" shape-rendering="geometricPrecision" text-rendering="geometricPrecision" viewBox="0 0 43.3492 43.3492" width="512" xmlns="http://www.w3.org/2000/svg"><g id="Layer_x0020_1"><path d="m21.657 7.9225c-.2818 0-.493-.2112-.493-.493v-2.4651c0-.6536.986-.6536.986 0v2.4651c.0352.2466-.2113.493-.493.493z" fill="#474f54"/><path d="m23.0304 5.4574h-2.7117c-.6536 0-.6536-.986 0-.986h2.7117c.6536 0 .6536.986 0 .986z" fill="#474f54"/><path d="m17.7479 7.9225c-.2201 0-1.8626-.129-2.5708-.3197v.0028c.0352.2817-.2113.4931-.493.4931-.2818 0-.4931-.2113-.4931-.493v-4.9656c0-.5449.6852-.6354.9132-.2718.7832-.3636 3.1368-.273 3.1368.2718v4.7542c0 .2818-.2113.5282-.4931.5282z" fill="#de333f"/><path d="m25.6012 7.9225c-.2817 0-.493-.2112-.493-.493v-4.7894c0-.5356.6619-.6322.901-.29.8261-.3422 3.1137-.2455 3.1137.29v4.9655c.0352.2817-.2113.4931-.493.4931-.229 0-2.0095-.1395-2.6692-.3429-.0884.1016-.2146.1667-.3595.1667z" fill="#de333f"/><path d="m29.3342 43.3153h-15.3192c-.3774 0-.6138-.4232-.4578-.7396l1.2325-2.5356c.323-.6116 9.2859.9542 12.8189.4578-.3111-.5868.6419-1.06.9156-.4225l1.2325 2.5356c.1594.3232-.0793.7043-.4225.7043z" fill="#474f54"/><path d="m27.0099 40.8501h-10.6707c-4.1908 0-7.6068-3.416-7.6068-7.6068l.0001-18.7352c0-4.1908 3.416-7.6069 7.6068-7.6069l10.6706.0001c4.1908 0 7.6068 3.416 7.6068 7.6068v18.7353c0 4.1907-3.416 7.6067-7.6068 7.6067z" fill="#e45963"/><path d="m8.7757 34.0533c-.0283-.2663-.0433-.5364-.0433-.81l.0001-18.7352c0-.2736.015-.5437.0433-.81h25.7976c.0283.2663.0433.5364.0433.81v18.7353c0 .2736-.015.5437-.0433.8099z" fill="#de333f"/><path d="m20.9526 32.8207c-.0352 0-.0352 0-.0704 0-1.9369-.2465-3.4512-1.303-4.3668-3.0638-1.2326-2.4299-1.1974-5.9516.1408-8.3816.2475-.471.9913-.2863.9509.2818 0 .0704-.0704 1.4791.6339 2.289-.81-3.3103.1408-7.3251 3.416-8.9802.3557-.1963.8418.1278.7395.5987-.8804 3.2751 1.2678 5.8107 3.5569 7.1137 3.1403 1.7909 1.8213 8.6944-2.2538 10.0719-.4692.1587-.9379-.4164-.5283-.8451 0 0 1.4791-1.62 1.2326-4.1203 0-.0352-.1761-1.9018-1.1974-3.2047.2248 1.4232-.2113 2.14-.2113 2.1482-.0704.0704-.7747 1.1621-1.5143 1.5847-.2465.1761-.9156.7747-.9156 1.2677 0 .1792-.3367 1.7957.6691 2.3244.2112.1057.3169.3521.2465.5987-.1409.176-.3169.3169-.5283.3169z" fill="#efc742"/><path d="m29.5625 3.1331h-15.7771c-.8452 0-1.5495-.7043-1.5495-1.5495s.7044-1.5496 1.5495-1.5496h15.7771c.8452 0 1.5495.7044 1.5495 1.5496.0353.8804-.6691 1.5495-1.5495 1.5495z" fill="#de333f"/></g></svg>