<svg clip-rule="evenodd" fill-rule="evenodd" height="512" image-rendering="optimizeQuality" shape-rendering="geometricPrecision" text-rendering="geometricPrecision" viewBox="0 0 512 512" width="512" xmlns="http://www.w3.org/2000/svg"><g id="Layer_x0020_1"><path d="m493.7 511.999h-229.4v-184-185.999h78.9002 65.5998 90.9003v363.999c0 3.30001-2.70001 6.00002-6.00002 6.00002zm-435.299-130.9c-1.5 0-3.1004-.600002-4.20001-1.80001-2.29961-2.29961-2.29961-6.10041 0-8.50042l15.7997-15.7004c2.29961-2.29961 6.10041-2.29961 8.50042 0 2.29961 2.29961 2.29961 6.10041 0 8.50042l-15.7997 15.7997c-1.2 1.2-2.8004 1.70079-4.30041 1.70079zm79.9006 21.3001c-1.5 0-3.1004-.600002-4.20001-1.80001-2.29961-2.29961-2.29961-6.10041 0-8.50042l15.7997-15.7997c2.29961-2.29961 6.10041-2.29961 8.50042 0 2.29961 2.29961 2.29961 6.10041 0 8.50042l-15.7997 15.7997c-1.20118 1.29922-2.70119 1.80001-4.30041 1.80001zm293.099-201.7c-1.5 0-3.1004-.600002-4.20001-1.80001-2.29961-2.29961-2.29961-6.10041 0-8.50042l15.7997-15.7997c2.29961-2.29961 6.10041-2.29961 8.50042 0 2.29961 2.29961 2.29961 6.10041 0 8.50042l-15.9 15.9c-1.2 1.2-2.70001 1.69961-4.20001 1.69961zm7.90042 180.4c-1.5 0-3.1004-.600002-4.20001-1.80001-2.29961-2.29961-2.29961-6.10041 0-8.50042l15.7997-15.7997c2.29961-2.29961 6.10041-2.29961 8.50042 0 2.29961 2.29961 2.29961 6.10041 0 8.50042l-15.7997 15.7997c-1.3004 1.29922-2.8004 1.80001-4.30041 1.80001zm-38.4001-62.8998c-1.5 0-3.1004-.600002-4.20001-1.80001-2.29961-2.29961-2.29961-6.10041 0-8.50042l15.7997-15.7997c2.29961-2.29961 6.10041-2.29961 8.50042 0 2.29961 2.29961 2.29961 6.10041 0 8.50042l-15.7997 15.7997c-1.20118 1.2-2.8004 1.80001-4.30041 1.80001zm-109.2-125.399c-1.5 0-3.1004-.600002-4.20001-1.80001-2.29961-2.29961-2.29961-6.10041 0-8.50042l15.7997-15.7997c2.29961-2.29961 6.10041-2.29961 8.50042 0 2.29961 2.29961 2.29961 6.10041 0 8.50042l-15.7997 15.7997c-1.2 1.29922-2.8004 1.80001-4.30041 1.80001zm16.0997 197.899c-1.5 0-3.1004-.600002-4.20001-1.80001-2.29961-2.29961-2.29961-6.10041 0-8.50042l15.7997-15.7997c2.29961-2.29961 6.10041-2.29961 8.50042 0s2.29961 6.10041 0 8.50042l-15.9 15.8989c-1.09961 1.10079-2.70001 1.70079-4.20001 1.70079zm115.7 71.999c-1.5 0-3.1004-.600002-4.20001-1.80001-2.29961-2.29961-2.29961-6.10041 0-8.50042l15.7997-15.7997c2.29961-2.29961 6.10041-2.29961 8.50042 0 2.29961 2.29961 2.29961 6.10041 0 8.50042l-15.9 15.9c-1.2 1.09961-2.70001 1.69961-4.20001 1.69961zm-228.898 10.4008c-1.5 0-3.1004-.600002-4.20001-1.80001-2.29961-2.29961-2.29961-6.10041 0-8.50042l15.7997-15.7997c2.29961-2.29961 6.10041-2.29961 8.50042 0 2.29961 2.29961 2.29961 6.10041 0 8.50042l-15.7997 15.7997c-1.3004 1.2-2.8004 1.80001-4.30041 1.80001zm-97.0007 0c-1.5 0-3.1004-.600002-4.20001-1.80001-2.29961-2.29961-2.29961-6.10041 0-8.50042l15.8008-15.7997c2.29961-2.29961 6.10041-2.29961 8.50042 0 2.29961 2.29961 2.29961 6.10041 0 8.50042l-15.7997 15.7997c-1.20118 1.2-2.70119 1.80001-4.30159 1.80001zm-33.6001-34.0997c-7.80002 0-14.2004-6.40041-14.2004-14.2004 0-7.80002 6.40041-14.2004 14.2004-14.2004 7.80002 0 14.2004 6.40041 14.2004 14.2004 0 7.80002-6.40041 14.2004-14.2004 14.2004zm0-16.4008c-1.2 0-2.2004 1.0004-2.2004 2.2004s1.0004 2.2004 2.2004 2.2004 2.2004-1.0004 2.2004-2.2004-1.0004-2.2004-2.2004-2.2004zm154.601-23.4001c-7.80002 0-14.2004-6.40041-14.2004-14.2004 0-7.80002 6.40041-14.2004 14.2004-14.2004 7.80002 0 14.2004 6.40041 14.2004 14.2004-.00118111 7.80121-6.40041 14.2004-14.2004 14.2004zm0-16.3997c-1.2 0-2.2004 1.0004-2.2004 2.2004s1.0004 2.2004 2.2004 2.2004 2.2004-1.0004 2.2004-2.2004c-.00118111-1.2-1.0004-2.2004-2.2004-2.2004zm157.399-157.199c-7.80002 0-14.2004-6.40041-14.2004-14.2004 0-7.80002 6.40041-14.2004 14.2004-14.2004 7.80002 0 14.2004 6.40041 14.2004 14.2004 0 7.80002-6.3012 14.2004-14.2004 14.2004zm0-16.3997c-1.2 0-2.2004 1.0004-2.2004 2.2004s1.0004 2.2004 2.2004 2.2004 2.2004-1.0004 2.2004-2.2004-1.0004-2.2004-2.2004-2.2004zm-27.3001 264.199c-7.80002 0-14.2004-6.40041-14.2004-14.2004 0-7.80002 6.40041-14.2004 14.2004-14.2004 7.80002 0 14.2004 6.40041 14.2004 14.2004-.00118111 7.80002-6.3012 14.2004-14.2004 14.2004zm0-16.4008c-1.2 0-2.2004 1.0004-2.2004 2.2004s1.0004 2.2004 2.2004 2.2004 2.2004-1.0004 2.2004-2.2004c-.00118111-1.2-.901184-2.2004-2.2004-2.2004zm27.3001-54.299c-7.80002 0-14.2004-6.40041-14.2004-14.2004 0-7.80002 6.40041-14.2004 14.2004-14.2004 7.80002 0 14.2004 6.40041 14.2004 14.2004-.00118111 7.90042-6.3012 14.2004-14.2004 14.2004zm0-16.4008c-1.2 0-2.2004 1.0004-2.2004 2.2004s1.0004 2.2004 2.2004 2.2004 2.2004-1.0004 2.2004-2.2004c-.00118111-1.2-1.0004-2.2004-2.2004-2.2004zm-52.1009-83.8999c-7.80002 0-14.2004-6.40041-14.2004-14.2004 0-7.80002 6.40041-14.2004 14.2004-14.2004 7.80002 0 14.2004 6.40041 14.2004 14.2004 0 7.80002-6.40041 14.2004-14.2004 14.2004zm0-16.3997c-1.2 0-2.2004 1.0004-2.2004 2.2004s1.0004 2.2004 2.2004 2.2004 2.2004-1.0004 2.2004-2.2004-1.0004-2.2004-2.2004-2.2004zm-71.5986 226h-234c-3.30001 0-6.00002-2.70001-6.00002-6.00002v-172h93.1999 65.5998 81.1999v178zm-240-190v-315.999c0-3.30001 2.70001-6.00002 6.00002-6.00002h81.1999v321.999h-87.1999zm99.1999 0v-321.999h53.5998v321.999zm65.5998 0v-321.999h160.099v130h-78.9002c-3.30001 0-5.99884 2.70001-5.99884 6.00002v185.999h-75.1998zm172.099-191.999v-130h53.5998v130zm65.5998 0v-130h78.9002c3.30001 0 6.00002 2.70001 6.00002 6.00002v124h-84.9003z" fill="#90a6b1"/><g fill="#fec107"><path d="m264.3 142v185.999 184h229.4c3.30001 0 6.00002-2.70001 6.00002-6.00002v-363.999h-90.9003-65.5998-78.9002zm167.101 58.6998c-1.5 0-3.1004-.600002-4.20001-1.80001-2.29961-2.29961-2.29961-6.10041 0-8.50042l15.7997-15.7997c2.29961-2.29961 6.10041-2.29961 8.50042 0 2.29961 2.29961 2.29961 6.10041 0 8.50042l-15.9 15.9c-1.2 1.2-2.70001 1.69961-4.20001 1.69961zm3.70041 170.099 15.7997-15.7997c2.29961-2.29961 6.10041-2.29961 8.50042 0 2.29961 2.29961 2.29961 6.10041 0 8.50042l-15.7997 15.7997c-1.3004 1.29922-2.8004 1.80001-4.30041 1.80001-1.5 0-3.1004-.600002-4.20001-1.80001-2.29961-2.29961-2.29961-6.10041 0-8.50042zm-14.1-70.199-15.7997 15.7997c-1.20118 1.2-2.8004 1.80001-4.30041 1.80001-1.5 0-3.1004-.600002-4.20001-1.80001-2.29961-2.29961-2.29961-6.10041 0-8.50042l15.7997-15.7997c2.29961-2.29961 6.10041-2.29961 8.50042 0 2.29961 2.29961 2.29961 6.10041 0 8.50042zm-30.7997-89.2007c0 7.80002-6.3012 14.2004-14.2004 14.2004-7.80002 0-14.2004-6.40041-14.2004-14.2004 0-7.80002 6.40041-14.2004 14.2004-14.2004 7.80002 0 14.2004 6.40041 14.2004 14.2004zm-98.5007-18.5989c-1.5 0-3.1004-.600002-4.20001-1.80001-2.29961-2.29961-2.29961-6.10041 0-8.50042l15.7997-15.7997c2.29961-2.29961 6.10041-2.29961 8.50042 0 2.29961 2.29961 2.29961 6.10041 0 8.50042l-15.7997 15.7997c-1.2 1.29922-2.8004 1.80001-4.30041 1.80001zm36.1997 180.299-15.9 15.8989c-1.09961 1.10079-2.70001 1.70079-4.20001 1.70079s-3.1004-.600002-4.20001-1.80001c-2.29961-2.29961-2.29961-6.10041 0-8.50042l15.7997-15.7997c2.29961-2.29961 6.10041-2.29961 8.50042 0s2.29961 6.10041 0 8.50042zm91.3999 79.2983 15.7997-15.7997c2.29961-2.29961 6.10041-2.29961 8.50042 0 2.29961 2.29961 2.29961 6.10041 0 8.50042l-15.9 15.9c-1.2 1.09961-2.70001 1.69961-4.20001 1.69961s-3.1004-.600002-4.20001-1.80001c-2.29961-2.29961-2.29961-6.10041 0-8.50042zm-70.5994-7.39963c7.80002 0 14.2004 6.40041 14.2004 14.2004-.00118111 7.80002-6.3012 14.2004-14.2004 14.2004-7.80002 0-14.2004-6.40041-14.2004-14.2004 0-7.80002 6.40041-14.2004 14.2004-14.2004zm27.3001-70.6998c7.80002 0 14.2004 6.40041 14.2004 14.2004-.00118111 7.90042-6.3012 14.2004-14.2004 14.2004-7.80002 0-14.2004-6.40041-14.2004-14.2004 0-7.80002 6.40041-14.2004 14.2004-14.2004zm-37.9005-86.1003c0 7.80002-6.40041 14.2004-14.2004 14.2004-7.80002 0-14.2004-6.40041-14.2004-14.2004 0-7.80002 6.40041-14.2004 14.2004-14.2004 7.80002 0 14.2004 6.40041 14.2004 14.2004z"/><path d="m12.3012 333.999v172c0 3.30001 2.70001 6.00002 6.00002 6.00002h234v-178h-81.1999-65.5998-93.1999zm50.4002 45.3994c-1.2 1.2-2.8004 1.70079-4.30041 1.70079-1.5 0-3.1004-.600002-4.20001-1.80001-2.29961-2.29961-2.29961-6.10041 0-8.50042l15.7997-15.7004c2.29961-2.29961 6.10041-2.29961 8.50042 0 2.29961 2.29961 2.29961 6.10041 0 8.50042l-15.7997 15.7997zm95.7003-3.09922c2.29961 2.29961 2.29961 6.10041 0 8.50042l-15.7997 15.7997c-1.20118 1.29922-2.70119 1.80001-4.30041 1.80001-1.5 0-3.1004-.600002-4.20001-1.80001-2.29961-2.29961-2.29961-6.10041 0-8.50042l15.7997-15.7997c2.29961-2.29961 6.10041-2.29961 8.50042 0zm31.9997 86.4995 15.7997-15.7997c2.29961-2.29961 6.10041-2.29961 8.50042 0 2.29961 2.29961 2.29961 6.10041 0 8.50042l-15.7997 15.7997c-1.3004 1.2-2.8004 1.80001-4.30041 1.80001-1.5 0-3.1004-.600002-4.20001-1.80001-2.29961-2.29961-2.29961-6.10041 0-8.50042zm-81.1999-15.7997c2.29961-2.29961 6.10041-2.29961 8.50042 0 2.29961 2.29961 2.29961 6.10041 0 8.50042l-15.7997 15.7997c-1.20118 1.2-2.70119 1.80001-4.30159 1.80001-1.5 0-3.1004-.600002-4.20001-1.80001-2.29961-2.29961-2.29961-6.10041 0-8.50042l15.8008-15.7997zm-45.2009-36.4005c7.80002 0 14.2004 6.40041 14.2004 14.2004 0 7.80002-6.40041 14.2004-14.2004 14.2004-7.80002 0-14.2004-6.40041-14.2004-14.2004 0-7.80002 6.40041-14.2004 14.2004-14.2004zm140.4-25.6005c0-7.80002 6.40041-14.2004 14.2004-14.2004 7.80002 0 14.2004 6.40041 14.2004 14.2004-.00118111 7.80121-6.40041 14.2004-14.2004 14.2004-7.80002 0-14.2004-6.40041-14.2004-14.2004z"/></g></g></svg>