<svg id="&#x421;&#x43B;&#x43E;&#x439;_1" enable-background="new 0 0 16 16" viewBox="0 0 16 16" xmlns="http://www.w3.org/2000/svg"><path d="m15.5 1.125h-13c-.2070313 0-.375.1679688-.375.375v1.625h-1.625c-.2070313 0-.375.1679688-.375.375v11c0 .2070313.1679688.375.375.375h13c.2070313 0 .375-.1679688.375-.375v-1.625h1.625c.2070313 0 .375-.1679688.375-.375v-11c0-.2070312-.1679687-.375-.375-.375zm-12.625 11v-10.25h12.25v10.25zm10.25 2h-12.25v-10.25h1.25v8.625c0 .2070313.1679688.375.375.375h10.625z" fill="rgb(0,0,0)"/></svg>