<svg id="Layer_3" height="512" viewBox="0 0 64 64" width="512" xmlns="http://www.w3.org/2000/svg" data-name="Layer 3"><path d="m63 33v-2h-22.08a6.955 6.955 0 0 0 -1.32-3.185l17.107-17.108-1.414-1.414-17.109 17.107a6.958 6.958 0 0 0 -4.184-1.4v2a5 5 0 0 1 0 10v2a6.956 6.956 0 0 0 4.185-1.4l17.108 17.107 1.414-1.414-17.107-17.109a6.956 6.956 0 0 0 1.32-3.184z" fill="#66c3e9"/><path d="m9 36.001v-8.001l-7 4.001z" fill="#f9cb5d"/><path d="m10 39.001 3 4-6 1z" fill="#ec8329"/><path d="m15 46.001 5 4-7 3z" fill="#f9cb5d"/><path d="m23 51.001 5 1-4.001 4.999z" fill="#ec8329"/><path d="m10 25.001 3-4-6-1z" fill="#ec8329"/><path d="m15 18.001 5-4-7-3z" fill="#f9cb5d"/><path d="m23 13.001 5-1-4.001-4.999z" fill="#ec8329"/><path d="m61.293 39.707-7-7a1 1 0 0 1 .057-1.467l7-6 1.3 1.52-6.181 5.3 6.237 6.236z" fill="#66c3e9"/><path d="m59.293 43.707-11-11a1 1 0 0 1 0-1.414l11-11 1.414 1.414-10.293 10.293 10.293 10.293z" fill="#3693cf"/><path d="m58 17h-8a1 1 0 0 1 -1-1v-8h2v7h7z" fill="#66c3e9"/><path d="m56 23h-12a1 1 0 0 1 -1-1v-12h2v11h11z" fill="#3693cf"/><path d="m51 56h-2v-8a1 1 0 0 1 1-1h8v2h-7z" fill="#66c3e9"/><path d="m45 54h-2v-12a1 1 0 0 1 1-1h12v2h-11z" fill="#3693cf"/><path d="m36 53.89h2v9.22h-2z" fill="#66c3e9" transform="matrix(.759 -.651 .651 .759 -29.164 38.163)"/><path d="m38.5 46.722h2v15.556h-2z" fill="#3693cf" transform="matrix(.707 -.707 .707 .707 -26.968 43.893)"/><path d="m32.39 4.5h9.22v2h-9.22z" fill="#3693cf" transform="matrix(.651 -.759 .759 .651 8.753 30.022)"/><path d="m31.722 8.5h15.556v2h-15.556z" fill="#66c3e9" transform="matrix(.707 -.707 .707 .707 4.852 30.713)"/><path d="m30 16.031q-.5-.031-1-.031a16 16 0 0 0 0 32q.5 0 1-.031" fill="#e73844"/><path d="m16.784 21.679a15.966 15.966 0 0 0 13.216 23.271v-28.919q-.5-.031-1-.031a15.958 15.958 0 0 0 -12.216 5.679z" fill="#ff4d55"/><g fill="#95afd1"><path d="m29 1h2v62h-2z"/><path d="m33 1h2v62h-2z"/></g></svg>