<svg id="Layer_1" viewBox="0 0 128 128" xmlns="http://www.w3.org/2000/svg" data-name="Layer 1"><path d="m90.4 57.17h-2.53a23.83464 23.83464 0 0 0 -2.07-5.01l1.8-1.81a4.743 4.743 0 0 0 1.34-3.63 5.50637 5.50637 0 0 0 -1.59-3.5l-2.27-2.28a4.98892 4.98892 0 0 0 -7.08-.25l-1.79 1.8a23.8114 23.8114 0 0 0 -4.98-2.07v-2.56a5.0335 5.0335 0 0 0 -5.19-4.86h-3.19a5.03986 5.03986 0 0 0 -5.19 4.86v2.56a23.73129 23.73129 0 0 0 -4.97 2.07l-1.79-1.8a5.00093 5.00093 0 0 0 -7.09.25l-2.26 2.28a5.43311 5.43311 0 0 0 -1.59 3.5 4.757 4.757 0 0 0 1.34 3.63l1.79 1.81a24.34132 24.34132 0 0 0 -2.06 5.01h-2.54a5.04323 5.04323 0 0 0 -4.83 5.22v3.22a5.04317 5.04317 0 0 0 4.83 5.22h2.54a24.33993 24.33993 0 0 0 2.06 5.01l-1.8 1.81a4.78687 4.78687 0 0 0 -1.33 3.63 5.41088 5.41088 0 0 0 1.59 3.5l2.26 2.28a4.98915 4.98915 0 0 0 7.08.25l1.8-1.8a23.511 23.511 0 0 0 4.97 2.07v2.56a5.03986 5.03986 0 0 0 5.19 4.86h3.19a5.0335 5.0335 0 0 0 5.19-4.86v-2.56a23.59211 23.59211 0 0 0 4.98-2.07l1.79 1.8a5.01016 5.01016 0 0 0 7.09-.25l2.25-2.28a5.44559 5.44559 0 0 0 1.6-3.5 4.75687 4.75687 0 0 0 -1.34-3.63l-1.8-1.81a24.05349 24.05349 0 0 0 2.07-5.01h2.53a5.04312 5.04312 0 0 0 4.83-5.22v-3.22a5.04318 5.04318 0 0 0 -4.83-5.22zm-25.95 18.83a12.00034 12.00034 0 1 1 11.91-12 11.96059 11.96059 0 0 1 -11.91 12z"/><path d="m112.71838 11.65436a9.64538 9.64538 0 0 0 -.629-7.09174 8.61058 8.61058 0 0 0 -7.71829-4.56262 10.49434 10.49434 0 0 0 -5.92133 1.88751c-4.86511 3.36011-2.77051 7.52557-2.77051 7.52557 1.36835 2.37714 3.72052 4.31073 5.70459 7.0094a7.48408 7.48408 0 0 0 -1.3866 1.25171c-.801-.46649-1.76306-.92755-2.00751-1.05389a15.01262 15.01262 0 0 0 -3.10211-1.231 11.4488 11.4488 0 0 0 -2.90209-.3893 8.38138 8.38138 0 0 0 -4.14 1.02264c-5.18958 2.91962-5.69958 9.26868-2.65637 13.73578 1.79296 2.63269 3.81652 3.24158 5.30541 3.24158a5.19111 5.19111 0 0 0 2.16754-.45154c2.35388-1.37415 4.27045-3.7334 6.93842-5.72791a7.47337 7.47337 0 0 0 1.27075 1.369c-.46527.80872-.92645 1.785-1.05243 2.03223a15.24272 15.24272 0 0 0 -1.22241 3.1239 9.64568 9.64568 0 0 0 .629 7.09174 8.61073 8.61073 0 0 0 7.71822 4.56258 10.49392 10.49392 0 0 0 5.92139-1.88751c4.86511-3.36017 2.77051-7.52563 2.77051-7.52563-1.36829-2.37708-3.72052-4.31067-5.70459-7.00934a7.48408 7.48408 0 0 0 1.3866-1.25171c.801.46649 1.76306.92755 2.00757 1.05389a15.01126 15.01126 0 0 0 3.10211 1.231 11.44844 11.44844 0 0 0 2.9021.3893 8.38115 8.38115 0 0 0 4.14-1.02264c5.18964-2.91962 5.69965-9.26868 2.65637-13.73578-1.79291-2.63269-3.81653-3.24164-5.30542-3.24158a5.19212 5.19212 0 0 0 -2.16748.45154c-2.354 1.37415-4.27045 3.7334-6.93842 5.72791a7.47158 7.47158 0 0 0 -1.27081-1.369c.46527-.80872.92645-1.785 1.05243-2.03223a15.24409 15.24409 0 0 0 1.22236-3.12386zm-7.061 14.26733a3.42231 3.42231 0 1 1 3.48762-3.42169 3.459 3.459 0 0 1 -3.48759 3.42169z"/><path d="m4.14709 84.26367a1.98805 1.98805 0 0 0 1.88367 1.36816 1.95935 1.95935 0 0 0 .62842-.10352 2.00411 2.00411 0 0 0 1.25629-2.53031c-.10089-.30371-.19928-.61035-.29578-.916a1.98713 1.98713 0 1 0 -3.78583 1.209q.15344.48781.31323.97267z"/><path d="m43.31934 3.62207c-.3205.11426-.64.22949-.95813.34863a2.0026 2.0026 0 0 0 .69238 3.876 1.97859 1.97859 0 0 0 .69141-.126q.44659-.167.897-.32715a2.00277 2.00277 0 0 0 1.21121-2.55175 1.98135 1.98135 0 0 0 -2.53387-1.21973z"/><path d="m2.07477 76.335a1.98672 1.98672 0 1 0 3.89832-.76855c-.06061-.3125-.11926-.625-.17407-.93945a1.98646 1.98646 0 1 0 -3.91187.69336q.08944.50972.18762 1.01464z"/><path d="m35.82959 6.84082q-.45236.23145-.8999.46777a2.00643 2.00643 0 0 0 -.8349 2.7002 1.98211 1.98211 0 0 0 1.75952 1.07031 1.96011 1.96011 0 0 0 .92175-.22949q.42252-.22266.84851-.44043a2.00739 2.00739 0 0 0 .87421-2.68848 1.98119 1.98119 0 0 0 -2.66919-.87988z"/><path d="m120.23633 33.32324c-.16241-.2998-.32727-.59668-.49408-.89355a1.97978 1.97978 0 0 0 -2.70795-.751 2.00853 2.00853 0 0 0 -.74622 2.72754q.23566.416.464.83691a1.9782 1.9782 0 0 0 2.69537.79492 2.00744 2.00744 0 0 0 .78888-2.71482z"/><path d="m1.03088 68.20508a1.992 1.992 0 0 0 1.97968 1.87012c.04315 0 .08728-.001.13092-.00391a1.99559 1.99559 0 0 0 1.85266-2.126q-.03058-.479-.05432-.96a1.986 1.986 0 1 0 -3.96716.19531q.02472.51276.05822 1.02448z"/><path d="m125.60815 58.86133a1.986 1.986 0 0 0 1.97534-2.22754c-.03833-.33887-.08-.67871-.12415-1.01758a1.98613 1.98613 0 1 0 -3.938.51953c.04119.31738.08.63574.11633.95313a1.99054 1.99054 0 0 0 1.97048 1.77246z"/><path d="m122.04681 48.59668c.08148.30957.16046.62207.238.93359a1.988 1.988 0 0 0 1.92542 1.5166 1.95311 1.95311 0 0 0 .482-.05957 2.00026 2.00026 0 0 0 1.44635-2.42383q-.12222-.49658-.25165-.99023a1.98713 1.98713 0 1 0 -3.84015 1.02344z"/><path d="m51.24634 122.52246c-.30933-.07129-.61719-.14355-.92511-.21973a1.99946 1.99946 0 0 0 -.94836 3.88477q.49677.123.99591.23535a1.95259 1.95259 0 0 0 .44073.0498 2.00111 2.00111 0 0 0 .43683-3.9502z"/><path d="m1.08759 58.98926q-.03928.50977-.07031 1.02051a1.99533 1.99533 0 0 0 1.8595 2.12012c.04169.00293.08337.00391.12457.00391a1.9922 1.9922 0 0 0 1.98022-1.876q.02975-.48193.06641-.96191a1.98617 1.98617 0 1 0 -3.96039-.30664z"/><path d="m3.98755 54.25488a1.9893 1.9893 0 0 0 1.94769-1.62207c.06012-.31445.12219-.62891.18768-.94043a1.98686 1.98686 0 1 0 -3.88763-.82227q-.104.50244-.20026 1.00684a1.99088 1.99088 0 0 0 1.95251 2.37793z"/><path d="m31.27271 14.11768a2.005 2.005 0 0 0 .30414-2.59326 1.97959 1.97959 0 0 0 -2.75934-.52734q-.41895.28711-.83252.57813a1.99629 1.99629 0 0 0 -.30347.26349 6.58241 6.58241 0 0 1 3.59119 2.27898z"/><path d="m51.163 1.40137q-.5018.10693-.99976.22168a1.9995 1.9995 0 1 0 .89117 3.89844c.30786-.07129.6167-.14062.92706-.20605a1.9994 1.9994 0 0 0 -.81847-3.91407z"/><path d="m126.01349 61.7998a1.99317 1.99317 0 0 0 -1.986 2l.00051.2002q0 .48193-.00726.96094a1.99343 1.99343 0 0 0 1.95306 2.03223h.033a1.99262 1.99262 0 0 0 1.985-1.96777c.0058-.34082.00824-.68262.00824-1.04l-.00049-.18555a1.99317 1.99317 0 0 0 -1.98606-2.00005z"/><path d="m125.67456 81.21387q.13532-.49219.26379-.98535a1.98682 1.98682 0 1 0 -3.8421-1.01367q-.1214.46729-.25018.93262a1.98717 1.98717 0 1 0 3.82849 1.06641z"/><path d="m127.34833 73.19629c.04846-.33984.09406-.67871.13721-1.01855a1.98622 1.98622 0 1 0 -3.94-.50586q-.06033.47754-.12848.95215a1.99826 1.99826 0 0 0 1.682 2.26563 2.02739 2.02739 0 0 0 .28607.02051 1.99088 1.99088 0 0 0 1.9632-1.71388z"/><path d="m74.00494 123.23242c-.31421.05176-.62933.09961-.945.14551a2.0012 2.0012 0 0 0 .28412 3.97949 2.07518 2.07518 0 0 0 .289-.02051q.504-.07471 1.00513-.15527a1.99988 1.99988 0 0 0 -.63324-3.94922z"/><path d="m66.41 123.96875q-.47635.01611-.95471.02344a2.00033 2.00033 0 0 0 .03442 4h.0354c.33893-.00684.67688-.01465 1.01385-.02539a2.00011 2.00011 0 0 0 -.129-3.998z"/><path d="m66.332.02734a1.973 1.973 0 0 0 -2.0437 1.94043 1.99353 1.99353 0 0 0 1.9263 2.05762q.47937.01465.95618.03613c.03009.001.06012.002.08972.002a2.00037 2.00037 0 0 0 .08679-3.998c-.33795-.01474-.67639-.02841-1.01529-.03818z"/><path d="m58.78217 123.73242q-.47644-.04541-.95135-.09863a2.00016 2.00016 0 0 0 -.43445 3.97656q.50482.05566 1.01147.10449c.06348.00586.127.00879.18958.00879a2.00074 2.00074 0 0 0 .18475-3.99121z"/><path d="m58.3894 4.2959a1.88554 1.88554 0 0 0 .19586-.00977q.47571-.04687.95325-.08594a1.99994 1.99994 0 0 0 -.32776-3.98632q-.50693.04248-1.01239.0918a2.00055 2.00055 0 0 0 .191 3.99023z"/><path d="m81.25659 6.41992q.459.13623.91394.2793a1.9989 1.9989 0 0 0 1.18408-3.81836q-.48587-.15234-.97412-.29687a1.99863 1.99863 0 0 0 -1.1239 3.83594z"/><path d="m88.59888 118.86621q-.43414.19482-.87128.38184a2.00233 2.00233 0 0 0 .77673 3.8418 1.964 1.964 0 0 0 .77484-.16016c.31177-.13281.62256-.26953.9314-.40723a2.005 2.005 0 0 0 1.009-2.63965 1.9803 1.9803 0 0 0 -2.62069-1.0166z"/><path d="m81.44617 121.52344q-.45676.13623-.91687.26563a2.0021 2.0021 0 0 0 .53143 3.92773 1.9789 1.9789 0 0 0 .53333-.07422q.49164-.1377.97894-.2832a1.999 1.999 0 0 0 -1.12683-3.83594z"/><path d="m75.43823.9541q-.50043-.08789-1.00366-.168a1.99978 1.99978 0 0 0 -.61969 3.95117c.31519.0498.62933.10352.94257.1582a2.05329 2.05329 0 0 0 .34283.0293 2.0013 2.0013 0 0 0 .338-3.9707z"/><path d="m16.60327 46.00293a15.59772 15.59772 0 0 0 10.78583-4.17969c5.49738-5.31836 6.80023-12.87891 3.48468-20.22461a41.36347 41.36347 0 0 0 -2.37482-4.542 2.44549 2.44549 0 0 0 -4.61737.66992 7.27389 7.27389 0 0 1 -.29242.86035 10.826 10.826 0 0 1 -.10327-2.28027c.01312-.51074.02185-.98145-.00146-1.37207-.34278-5.72362-2.56444-10.87108-6.09473-14.12011a2.48545 2.48545 0 0 0 -2.78412-.624 2.5488 2.5488 0 0 0 -1.44586 2.51563c-.00531 1.14746-.50909 4.49512-5.05273 10.7832-4.43506 6.1377-9.85681 15.31641-5.75922 24.124a15.00889 15.00889 0 0 0 11.02771 8.08789 17.48332 17.48332 0 0 0 3.22778.30176zm.5285-43.28613-.00049.00879-1.98553-.00977zm-9.158 35.98944a9.38771 9.38771 0 0 1 -2.02931-2.79024c-3.20546-6.88963 1.53216-14.75584 5.37427-20.07323a33.54548 33.54548 0 0 0 5.2821-9.86328 18.41391 18.41391 0 0 1 2.9184 9.19531c.01794.29395.00586.64648-.00385 1.0293-.05139 2.01172-.14642 5.75684 3.283 6.78809a3.08272 3.08272 0 0 0 2.39762-.25879 3.98424 3.98424 0 0 0 1.26306-1.1543q.40512.8042.79858 1.6748c2.40863 5.33673 1.79523 10.58514-1.63379 14.62091a11.13676 11.13676 0 0 0 -.87683-5.97052 23.01192 23.01192 0 0 0 -1.23932-2.48242 2.25818 2.25818 0 0 0 -2.26434-1.19238c-.05139.00684-.10181.01563-.15173.02637a11.9626 11.9626 0 0 0 -3.3019-7.54886 2.227 2.227 0 0 0 -2.46942-.53809 2.27622 2.27622 0 0 0 -1.34161 2.19629c-.002.40332-.17749 1.96191-2.36176 5.12891-1.98346 2.87582-4.32184 6.97043-3.64319 11.21213z"/><path d="m43.924 120.3457c-.05786-.0213-.1153-.044-.173-.06555a5.93981 5.93981 0 0 1 -3.40753 1.44324 1.9949 1.9949 0 0 0 1.259 2.01685q.47635.18457.95612.36133a1.97539 1.97539 0 0 0 2.54749-1.19043 2.00331 2.00331 0 0 0 -1.18208-2.56544z"/><path d="m41.55731 116.78027a2.00708 2.00708 0 0 0 -.70013-2.73828l-3.10547-1.84692 3.03467-.26343a1.99582 1.99582 0 0 0 1.808-2.16406 1.97244 1.97244 0 0 0 -2.14941-1.82031l-8.58337.74481-6.20813-3.6922 6.2077-3.692 8.5838.74481a1.72452 1.72452 0 0 0 .1731.00781 2.00041 2.00041 0 0 0 .16827-3.99219l-3.0351-.26349 2.81641-1.675a2.00708 2.00708 0 0 0 .70013-2.73828 1.9778 1.9778 0 0 0 -2.72009-.70508l-3.10065 1.84406 1.11955-2.77852a2.00543 2.00543 0 0 0 -1.09387-2.60547 1.97981 1.97981 0 0 0 -2.58722 1.10147l-3.07562 7.63519-6.83936 4.06757v-7.35457l5.50948-6.78369a2.00986 2.00986 0 0 0 -.28027-2.81445 1.97449 1.97449 0 0 0 -2.79474.28125l-2.43451 2.9978v-4.2771a1.98607 1.98607 0 1 0 -3.972 0v4.2771l-2.43448-2.9978a1.97717 1.97717 0 0 0 -2.79474-.28125 2.00992 2.00992 0 0 0 -.28026 2.81445l5.50952 6.78369v6.44574l-6.48859-3.859-2.79356-6.93493a1.98283 1.98283 0 0 0 -2.58722-1.10156 2.00543 2.00543 0 0 0 -1.09387 2.60556l.83728 2.07825-1.923-1.14368a1.977 1.977 0 0 0 -2.72009.70508 2.00714 2.00714 0 0 0 .70013 2.73828l2.7023 1.60713-3.81641.3313a2.00041 2.00041 0 0 0 .16827 3.99219 1.72452 1.72452 0 0 0 .1731-.00781l9.21729-.7998c.04321-.00372.08313-.01959.12567-.02606l6.344 3.773-6.20819 3.6922-8.58337-.74481a1.99953 1.99953 0 0 0 -.34131 3.98438l3.03461.26343-3.10542 1.84692a2.00708 2.00708 0 0 0 -.70014 2.73827 1.97637 1.97637 0 0 0 2.72009.70508l3.3902-2.0163-1.11957 2.779a2.00545 2.00545 0 0 0 1.09381 2.60547 1.977 1.977 0 0 0 2.58728-1.10156l3.07574-7.63556 5.31091-3.15857v6.78491l-5.50946 6.7846a2.00883 2.00883 0 0 0 .28027 2.81348 1.97383 1.97383 0 0 0 2.79474-.28223l2.43451-2.9978v3.93921a1.98607 1.98607 0 1 0 3.972 0v-3.93921l2.43451 2.9978a1.97552 1.97552 0 0 0 2.79474.28223 2.00877 2.00877 0 0 0 .28027-2.81348l-5.50952-6.78461v-7.69385l6.83917 4.0675 3.07581 7.63562a1.98825 1.98825 0 1 0 3.68109-1.50391l-1.11963-2.779 3.39026 2.0163a1.95761 1.95761 0 0 0 1.00806.27832 1.98279 1.98279 0 0 0 1.71203-.98344z"/><path d="m93.82819 118.5332a1.97467 1.97467 0 0 0 1.16083.90332 17.82369 17.82369 0 0 1 -.66455-3.48254 2.003 2.003 0 0 0 -.49628 2.57922z"/><path d="m122.98358 88.96289q.19849-.47168.39081-.94922a2.0045 2.0045 0 0 0 -1.09485-2.60449 1.97692 1.97692 0 0 0 -2.38794.7309 33.09391 33.09391 0 0 0 1.9632 3.89856 1.97286 1.97286 0 0 0 1.12878-1.07575z"/><path d="m115.36731 85.1709c-.36462-1.40625-.8175-3.15723-2.60272-3.1709h-.02087c-1.76685 0-2.24976 1.75488-2.60278 3.03711-.98279 3.56836-3.05267 7.14551-5.24426 10.93359-3.54437 6.125-7.20947 12.458-6.62567 19.55664.53333 6.46973 5.40765 11.2959 12.41834 12.2959a17.05413 17.05413 0 0 0 2.40784.16895c5.46637-.001 11.54272-2.542 13.8681-8.68262 3.18457-8.418-1.666-16.16211-5.94543-22.99512-2.42574-3.87207-4.71676-7.53027-5.65255-11.14355zm2.92664 32.59473a1.98808 1.98808 0 1 1 -3.66943-1.53125c1.52-3.69141-1.1792-8.11328-1.20685-8.15723a2.00783 2.00783 0 0 1 .60364-2.76172 1.97511 1.97511 0 0 1 2.74292.60742c.1585.25 3.859 6.18555 1.52972 11.84278z"/><path d="m90.95532 5.81543q-.46179-.2124-.92706-.41992a1.9803 1.9803 0 0 0 -2.61731 1.02539 2.00611 2.00611 0 0 0 1.01825 2.63672q.44073.19482.87762.39648a1.92292 1.92292 0 0 0 2.13635-.34344 9.73911 9.73911 0 0 1 -.11217-3.06574 1.97556 1.97556 0 0 0 -.37568-.22949z"/><path d="m119.975 42.2041a1.98792 1.98792 0 1 0 3.70148-1.45117q-.18475-.47754-.37726-.95215a1.9653 1.9653 0 0 0 -3.36639-.50934 9.44607 9.44607 0 0 1 -.41968 1.65076 2.01692 2.01692 0 0 0 .10791.36835q.18033.44531.35394.89355z"/></svg>