<svg id="Layer_1" enable-background="new 0 0 512 512" height="512" viewBox="0 0 512 512" width="512" xmlns="http://www.w3.org/2000/svg"><g id="XMLID_1_"><g id="XMLID_3763_"><path id="XMLID_1142_" d="m103.5 43.9-4.7 13.2c-4.2 11.7-11.9 21.7-22.2 28.7l-10.1 6.8c-16 10.9-25.6 29-25.6 48.3v115.1c0 15.9-6.5 31.2-18 42.2-11.5 11-18 26.3-18 42.2v61.8c0 17 7.4 33.1 20.2 44.2l53.6 46.3c10.8 9.3 24.3 14.3 38.3 14.3h276.4c19.7 0 38-9.9 48.8-26.3l24.1-36.7c6.3-9.5 9.6-20.7 9.6-32.1v-89.6c0-6.9 1.2-13.7 3.6-20.1l23.9-65.2c2.4-6.4 3.6-13.2 3.6-20.1v-102.2c0-15.2-5.9-29.8-16.5-40.7l-49.9-51.3c-11.1-11.3-26.2-17.7-41.9-17.7l-240.1.1c-24.7 0-46.8 15.5-55.1 38.8z" fill="#d8d6c1"/><path id="XMLID_1141_" d="m103.5 43.9-4.7 13.2c-4.2 11.7-11.9 21.7-22.2 28.7l-10.1 6.8c-16 10.9-25.6 29-25.6 48.3v115.1c0 15.9-6.5 31.2-18 42.2-11.5 11-18 26.3-18 42.2v61.8c0 17 7.4 33.1 20.2 44.2l53.6 46.3c10.8 9.3 24.3 14.3 38.3 14.3h216.4c19.7 0 38-9.9 48.8-26.3l24.1-36.7c6.3-9.5 9.6-20.7 9.6-32.1v-89.6c0-6.9 1.2-13.7 3.6-20.1l23.9-65.2c2.4-6.4 3.6-13.2 3.6-20.1v-102.2c0-15.2-5.9-29.8-16.5-40.7l-49.9-51.3c-11-11.3-26.2-17.7-41.9-17.7l-180.2.1c-24.6 0-46.7 15.5-55 38.8z" fill="#ebebdf"/><g id="XMLID_1140_"><path id="XMLID_2316_" d="m52.9 470.5-7.4-6.7 67.4-75.3c.8-.9 1.9-1.5 3.1-1.6l50.3-6 19.2-46.9c.2-.4.4-.8.7-1.2l36-45.6 7.8 6.2-35.5 45-20 49c-.7 1.7-2.2 2.9-4 3.1l-51.3 6.1z" fill="#c5c2a1"/></g><g id="XMLID_1139_"><path id="XMLID_2315_" d="m134.1 391.7-9.6-2.8 18.9-65.6c.8-2.6 3.5-4.2 6.1-3.4l41.8 11.2-2.6 9.7-37.1-9.9z" fill="#c5c2a1"/></g><g id="XMLID_1138_"><path id="XMLID_2314_" d="m262.2 324.6c-.2 0-.5 0-.7-.1l-53.1-8 1.5-9.9 50.5 7.6 33.2-34.3 45.3-84.3 8.8 4.7-45.6 84.9c-.2.4-.5.8-.8 1.1l-35.5 36.7c-.9 1.1-2.2 1.6-3.6 1.6z" fill="#c5c2a1"/></g><g id="XMLID_1137_"><path id="XMLID_2313_" d="m338.4 507.6-9.9-1.3 9.7-76.3-12.5-57.4c-.2-.9-.1-1.9.2-2.7l24.9-69.8-17.6-134.7 9.9-1.3 17.8 135.9c.1.8 0 1.6-.2 2.3l-24.9 69.6 12.4 56.9c.1.6.1 1.1.1 1.7z" fill="#c5c2a1"/></g><g id="XMLID_1136_"><path id="XMLID_2312_" d="m312 446.3h10v69.5h-10z" fill="#c5c2a1" transform="matrix(.747 .665 -.665 .747 400.112 -89.022)"/></g><g id="XMLID_1135_"><path id="XMLID_2311_" d="m45.1 257.6-8-6 45-59.5c.9-1.2 2.4-2 4-2h28l18.6-69.9c.3-1.1 1-2.1 2-2.8l39.8-28c1.2-.8 2.6-1.1 4-.8l45.4 10.6 20.3-27.7 8.1 5.9-22.3 30.3c-1.2 1.6-3.2 2.4-5.2 1.9l-46.5-10.8-36.5 25.6-19.1 71.8c-.6 2.2-2.6 3.7-4.8 3.7h-29.3z" fill="#c5c2a1"/></g><g id="XMLID_1134_"><path id="XMLID_2310_" d="m42.9 189.8-3.7-9.3 55.4-21.7 29.9-108.1 9.6 2.7-30.5 110.5c-.4 1.5-1.5 2.7-3 3.3z" fill="#c5c2a1"/></g><g id="XMLID_1133_"><path id="XMLID_2309_" d="m202.6 174.9-7.5-6.6 25-28.2-15.6-37.3 9.2-3.9 16.9 40.2c.7 1.8.4 3.8-.9 5.3z" fill="#c5c2a1"/></g></g></g></svg>