<svg id="Layer_1" enable-background="new 0 0 512 512" height="512" viewBox="0 0 512 512" width="512" xmlns="http://www.w3.org/2000/svg"><g><g><path d="m509.072 248.929s-246-246-246-246c-3.906-3.904-10.236-3.904-14.143 0 0 0-246 246-246 246-3.905 3.905-3.905 10.237 0 14.143l246 246c3.906 3.905 10.237 3.905 14.143 0 0 0 246-246 246-246 3.905-3.906 3.905-10.238 0-14.143zm-88.886 11.304c17.786 27.664-25.154 31.804-19.382 82.821l-68.787 68.787c-2.785-25.792 12.865-47.24 23.203-64.479 26.44-44.388 26.976-72.777 27.407-95.589.253-13.387.472-24.947 5.904-37.731 5.484-12.906 14.742-22.607 24.498-32.871l16.806 16.806c-17.088 18.074-22.686 40.041-9.649 62.256zm-164.186-236.09 32.099 32.099c-12.322 10.534-27.099 16.936-44.905 19.491-10.657 1.53-22.646-1.632-33.106-5.678zm-71.892 391.822-27.789-27.789c19.483-11.512 38.756-13.43 47.871-46.457 1.363-5.353-1.871-10.796-7.223-12.158-5.357-1.365-10.797 1.871-12.158 7.223-5.955 25.205-25.808 24.243-42.877 37.006l-26.203-26.203c26.484-14.084 59.517-23.402 72.617-52.565 2.178-4.863 4.326-10.007 6.403-14.98 9.291-22.248 18.899-45.253 36.273-57.764 7.512-5.409 15.881-5.113 19.632-1.697 4.22 3.84.562 11.273-1.207 14.292-20.668 35.274-23.318 81.184-23.318 117.238.569 39.184-22.532 39.017-42.021 63.854zm71.892 71.892-57.678-57.678c6.221-7.857 12.662-13.219 18.932-18.438 14.85-12.358 28.875-24.031 28.875-59.632 0-33.527 2.339-76.004 20.574-107.127 21.234-37.273-19.129-59.598-47.366-38.936-26.521 19.318-36.652 52.587-49.244 80.8-10.425 23.321-46.21 32.281-69.081 46.023l-45.725-45.726c23.478-12.835 56.46-21.508 73.868-39.373 7.49-7.741 14.352-17.436 20.739-26.7 3.135-4.548 1.989-10.774-2.558-13.909-4.549-3.135-10.776-1.989-13.909 2.558-5.911 8.575-12.219 17.502-18.646 24.144-16.686 16.08-52.057 24.956-74.212 38.564l-16.426-16.427 170.655-170.655c12.054 5.348 27.414 10.773 42.768 10.773 24.34-.868 47.598-10.693 64.703-25.707l28.262 28.262c-40.006 20.939-64.499 4.039-106.34 24.004-10.353 4.778-20.225 10.578-29.341 17.242-4.459 3.26-5.431 9.516-2.172 13.975 3.28 4.487 9.561 5.41 13.975 2.172 56.592-41.935 82.756-10.26 138.563-42.709l53.667 53.667c-10.728 11.292-21.758 22.748-28.757 39.195-6.95 16.352-7.215 30.353-7.495 45.176-.406 21.515-.867 45.899-24.593 85.731-13.059 21.774-35.54 52.909-22.518 91.212zm165.896-165.895c2.237-7.853 6.501-13.773 10.903-19.883 35.349-44.958-22.193-53.362 11.192-89.944l43.867 43.865z"/><path d="m168.174 169.032c-5.525-.005-10.004 4.475-10.004 10 .492 13.247 19.515 13.249 20.004 0 0-5.522-4.477-10-10-10z"/></g></g></svg>