<svg height="464pt" viewBox="0 0 464 463" width="464pt" xmlns="http://www.w3.org/2000/svg"><path d="m104 304.285156s48 40.214844 56 64.214844-24 56-8 80 38.078125 14.886719 48 0c16-24-40-92.800781 48-124.800781 0 0-84.664062 19.25-144-19.414063zm0 0" fill="#cdeef6"/><path d="m328 272.5c-40.265625 48.441406-32 64-32 88s-34.289062 25.191406-32 0c2.335938-25.664062-40-32-40-32 39.769531-7.050781 76.222656-26.679688 104-56zm0 0" fill="#cdeef6"/><path d="m0 .5h128v32h-128zm0 0" fill="#2d75bb"/><path d="m16 32.5h96v96h-96zm0 0" fill="#87cee9"/><path d="m0 128.5h128v32h-128zm0 0" fill="#2d75bb"/><path d="m288 80.5v48h96v-16c0-8.835938 7.164062-16 16-16h32v-80h-80c-35.347656 0-64 28.652344-64 64zm0 0" fill="#87cee9"/><path d="m432 .5h32v112h-32zm0 0" fill="#2d75bb"/><path d="m272 128.5h128v32h-128zm0 0" fill="#2d75bb"/><path d="m288 160.5c0 44.183594-35.816406 80-80 80h-16c-44.183594 0-80-35.816406-80-80h-96c0 97.203125 78.796875 176 176 176h16c97.203125 0 176-78.796875 176-176zm0 0" fill="#87cee9"/><path d="m211.574219 279.660156-7.148438-14.320312-44.425781 22.214844-28.425781-14.214844-7.148438 14.320312 29.277344 14.640625 14.863281 37.167969 14.867188-5.9375-13.273438-33.167969zm0 0" fill="#2d75bb"/><g fill="#cdeef6"><path d="m328 96.5h-16v-16c.027344-22.082031 17.917969-39.972656 40-40h16v16h-16c-13.253906 0-24 10.746094-24 24zm0 0"/><path d="m72 56.5h16v48h-16zm0 0"/><path d="m72 184.5h16v16h-16zm0 0"/><path d="m384 40.5h16v16h-16zm0 0"/></g></svg>