<?xml version="1.0"?>
<svg xmlns="http://www.w3.org/2000/svg" id="line" viewBox="0 0 64 64"><path d="M50,19H22V14H38.5a3.5,3.5,0,0,0,0-7H7.5a3.5,3.5,0,0,0,0,7H8v5.10107A5.00837,5.00837,0,0,0,4,24V55a2.002,2.002,0,0,0,2,2H24a2.002,2.002,0,0,0,2-2V30H43v2a2.002,2.002,0,0,0,2,2H55a2.002,2.002,0,0,0,2-2V30h2a1,1,0,0,0,1-1A10.01114,10.01114,0,0,0,50,19ZM7.5,12a1.5,1.5,0,0,1,0-3h31a1.5,1.5,0,0,1,0,3H13a1,1,0,0,0,0,2h7v5H10V13a1,1,0,0,0-1-1ZM6,55V50H24v5ZM56,28a1,1,0,0,0-1,1v3H45V30h7a1,1,0,0,0,0-2H25a1,1,0,0,0-1,1V48H6V24a3.00328,3.00328,0,0,1,3-3H50a8.01291,8.01291,0,0,1,7.938,7Z"/><path d="M50.688,38.52393a1.00093,1.00093,0,0,0-1.376,0C48.67578,39.12744,45.5,42.251,45.5,44.5a4.5,4.5,0,0,0,9,0C54.5,42.251,51.32422,39.12744,50.688,38.52393ZM50,47a2.50294,2.50294,0,0,1-2.5-2.5c0-.85059,1.31689-2.57324,2.5-3.83057,1.18311,1.25733,2.5,2.98,2.5,3.83057A2.50294,2.50294,0,0,1,50,47Z"/></svg>
