<svg height="512" viewBox="0 0 64 64" width="512" xmlns="http://www.w3.org/2000/svg"><g id="_16-paint" data-name="16-paint"><path d="m41 15v38a2 2 0 0 1 -2 2 2 2 0 0 1 -2-2v-4a2 2 0 0 0 -2-2 2 2 0 0 0 -2 2v12a2 2 0 0 1 -2 2 2 2 0 0 1 -2-2v-8a2 2 0 0 0 -2-2 2 2 0 0 0 -2 2v3a2 2 0 0 1 -2 2 2 2 0 0 1 -2-2v-4a2 2 0 0 0 -2-2 2 2 0 0 0 -2 2v8a2 2 0 0 1 -2 2 2 2 0 0 1 -2-2v-40" fill="#ffc630"/><rect fill="#94350f" height="30" rx="3.226" transform="matrix(.707 -.707 .707 .707 -18.891 49.364)" width="8" x="46.142" y="32.485"/><rect fill="#ffc630" height="14" rx="2.299" transform="matrix(.707 -.707 .707 .707 -7.175 21.08)" width="40" x="1.858" y="12.201"/><path d="m39.324 8.383-1.362-1.362a2.134 2.134 0 0 1 0 3.017l-25.262 25.267a2.134 2.134 0 0 1 -3.017 0l1.362 1.363a2.3 2.3 0 0 0 3.251 0l25.028-25.034a2.3 2.3 0 0 0 0-3.251z" fill="#b28610"/><path d="m9.837 47.778a1 1 0 0 1 -.707-.293l-7.778-7.778a1 1 0 0 1 0-1.414l5.657-5.657a1 1 0 0 1 1.414 1.414l-4.95 4.95 6.479 6.479 22.648-15.785a1 1 0 0 1 1.278.114l6.365 6.364a1 1 0 0 1 -1.414 1.414l-5.773-5.773-22.647 15.787a1 1 0 0 1 -.572.178z" fill="#ee5c2b"/></g></svg>