<svg id="Layer_1" enable-background="new 0 0 48 48" height="512" viewBox="0 0 48 48" width="512" xmlns="http://www.w3.org/2000/svg"><path d="m41 6h-34c-.553 0-1 .448-1 1v34c0 .552.447 1 1 1h34c.553 0 1-.448 1-1v-34c0-.552-.447-1-1-1zm-1 34h-32v-32h32zm-25.707-11.293c-.391-.391-.391-1.024 0-1.414l8-8c.39-.391 1.023-.391 1.414 0s.391 1.024 0 1.414l-8 8c-.39.391-1.023.391-1.414 0zm10-1.415 8-8c.391-.39 1.023-.391 1.414 0s.391 1.024 0 1.414l-8 8c-.39.391-1.023.391-1.414 0-.391-.39-.39-1.023 0-1.414zm-14.293-16.292c0-.552.448-1 1-1s1 .448 1 1-.448 1-1 1-1-.448-1-1zm26 0c0-.552.448-1 1-1s1 .448 1 1-.448 1-1 1-1-.448-1-1zm-26 26c0-.552.448-1 1-1s1 .448 1 1-.448 1-1 1-1-.448-1-1zm26 0c0-.552.448-1 1-1s1 .448 1 1-.448 1-1 1-1-.448-1-1z"/></svg>