<svg id="Icons" height="512" viewBox="0 0 60 60" width="512" xmlns="http://www.w3.org/2000/svg"><rect fill="#619edb" height="58" rx="1" transform="matrix(0 1 -1 0 60 0)" width="58" x="1" y="1"/><g fill="#4078bc"><path d="m31 23-6 3-1 6 6 4 6-3v-6z"/><path d="m30.458 25.983a.921.921 0 0 0 .18.017 1 1 0 0 0 .982-.821l1.08-5.954 11.775-6.345a1 1 0 1 0 -.95-1.76l-10.365 5.587 1.823-10.028a1 1 0 0 0 -1.966-.358l-3.364 18.5a1 1 0 0 0 .805 1.162z"/><path d="m32.017 27.725a1 1 0 0 0 .982.821.921.921 0 0 0 .18-.017l19-3.455a1 1 0 0 0 -.358-1.967l-19 3.456a1 1 0 0 0 -.804 1.162z"/><path d="m35.611 31.437a1 1 0 1 0 -1.222 1.582l11.944 9.229v5.085a1 1 0 0 0 2 0v-3.54l1.723 1.331a1 1 0 1 0 1.222-1.582z"/><path d="m9.581 13.758a1 1 0 0 0 -1.162 1.627l9.581 6.844v11.439l-1.389.641-6.029 2.783a1 1 0 0 0 .838 1.816l4.58-2.114v17.206a1 1 0 0 0 2 0v-18.129l8.419-3.886a1 1 0 1 0 -.838-1.816l-5.581 2.576v-9.088l6.419 4.585a1 1 0 0 0 1.162-1.627z"/><path d="m34.447 47.105-3.447-1.723v-12.382a1 1 0 0 0 -2 0v17a1 1 0 0 0 2 0v-2.382l2.553 1.282a1 1 0 1 0 .894-1.79z"/><path d="m26 10a1 1 0 0 1 -1 1h-2.23l1.99 2.35a1 1 0 0 1 -1.52 1.3l-11.55-13.65h2.63l6.76 8h3.92a1 1 0 0 1 1 1z"/><path d="m10 25a1 1 0 0 1 -1 1h-8v-2h8a1 1 0 0 1 1 1z"/><path d="m7 30a1 1 0 0 1 -1 1h-5v-2h5a1 1 0 0 1 1 1z"/><path d="m59 34.95v2.1l-10.29-3.09a1 1 0 0 1 .58-1.92z"/><path d="m44 53v6h-2v-6a1 1 0 0 1 2 0z"/></g></svg>