<svg id="Capa_1" enable-background="new 0 0 512 512" viewBox="0 0 512 512" xmlns="http://www.w3.org/2000/svg"><g><path d="m377.438 101.575c13.217 8.62 24.322 19.723 33.008 33 1.916 2.928 5.145 4.675 8.639 4.675h.003c3.495-.001 6.725-1.751 8.64-4.683 8.542-13.08 19.948-24.488 32.986-32.992v-.001c2.933-1.912 4.685-5.142 4.687-8.638.003-3.496-1.745-6.729-4.675-8.646-13.251-8.669-24.353-19.777-32.999-33.015-1.914-2.93-5.144-4.68-8.639-4.681h-.003c-3.494 0-6.723 1.748-8.639 4.675-8.666 13.246-19.776 24.356-33.021 33.022-2.929 1.917-4.677 5.149-4.674 8.646s1.754 6.725 4.687 8.638zm41.644-36.436c7.796 10.666 17.1 19.974 27.771 27.785-10.66 7.788-19.964 17.095-27.771 27.779-7.82-10.688-17.129-19.996-27.783-27.779 10.666-7.808 19.975-17.117 27.783-27.785z"/><path d="m468.748 185.714c-10.427-6.821-19.162-15.561-25.964-25.977-1.81-2.77-4.862-4.424-8.167-4.425h-.003c-3.304 0-6.356 1.652-8.166 4.419-6.819 10.424-15.562 19.165-25.983 25.983-2.77 1.813-4.422 4.869-4.418 8.176s1.661 6.358 4.431 8.162c10.254 6.689 19.234 15.668 25.97 25.964 1.811 2.769 4.863 4.421 8.167 4.421h.003c3.305-.001 6.357-1.655 8.168-4.426 6.719-10.291 15.692-19.267 25.949-25.957 2.772-1.808 4.43-4.86 4.433-8.166s-1.649-6.361-4.42-8.174zm-34.137 27.877c-5.679-7.458-12.277-14.055-19.718-19.716 7.445-5.672 14.044-12.271 19.718-19.719 5.665 7.445 12.261 14.044 19.709 19.719-7.441 5.661-14.037 12.259-19.709 19.716z"/><path d="m77.4 170.312h.003c3.305-.001 6.357-1.655 8.167-4.426 6.721-10.291 15.695-19.268 25.951-25.957 2.772-1.808 4.429-4.859 4.432-8.165s-1.648-6.362-4.419-8.176c-10.427-6.821-19.162-15.561-25.964-25.977-1.81-2.77-4.862-4.424-8.167-4.425h-.003c-3.304 0-6.356 1.652-8.166 4.419-6.819 10.424-15.562 19.165-25.983 25.983-2.77 1.812-4.421 4.868-4.418 8.174s1.66 6.358 4.431 8.164c10.254 6.689 19.234 15.668 25.97 25.964 1.81 2.77 4.863 4.422 8.166 4.422zm-19.72-38.562c7.445-5.672 14.044-12.271 19.718-19.719 5.665 7.445 12.262 14.045 19.709 19.719-7.44 5.661-14.036 12.259-19.709 19.716-5.68-7.458-12.278-14.056-19.718-19.716z"/><path d="m410.734 410.261c-4.501-4.501-9.665-8.078-15.219-10.685v-87.906c0-22.475-9.334-44.251-25.606-59.745-3.468-3.303-5.456-7.926-5.456-12.686v-63.021c0-23.977-12.566-45.074-31.458-57.051 9.529-5.672 15.927-16.077 15.927-27.949v-58.718c0-17.92-14.579-32.5-32.5-32.5h-136.375c-17.921 0-32.5 14.58-32.5 32.5v58.719c0 11.872 6.398 22.277 15.927 27.949-18.892 11.977-31.458 33.074-31.458 57.051v63.021c0 4.76-1.988 9.383-5.455 12.685-16.273 15.495-25.607 37.271-25.607 59.746v87.906c-5.554 2.608-10.718 6.185-15.22 10.685-21.09 21.091-21.09 55.409 0 76.5l5.469 5.469c12.749 12.748 29.7 19.77 47.729 19.77h218.605c18.029 0 34.98-7.021 47.729-19.77l5.469-5.469c21.09-21.091 21.09-55.409-.001-76.501.001 0 .001 0 0 0zm-76.812-377.761v58.719c0 9.649-7.851 17.5-17.5 17.5h-14.094v-93.719h14.094c9.649 0 17.5 7.851 17.5 17.5zm-171.375 0c0-9.649 7.851-17.5 17.5-17.5h14.094v31.758c0 4.142 3.357 7.5 7.5 7.5s7.5-3.358 7.5-7.5v-31.758h78.188v93.719h-78.188v-27.961c0-4.143-3.357-7.5-7.5-7.5s-7.5 3.357-7.5 7.5v27.961h-14.094c-9.649 0-17.5-7.851-17.5-17.5zm36.969 91.219h97.438c28.623 0 51.971 23.025 52.491 51.527l-42.347 42.346c-12.748 12.749-19.77 29.7-19.77 47.729v32.69c0 4.143 3.357 7.5 7.5 7.5s7.5-3.357 7.5-7.5v-32.69c0-14.023 5.461-27.207 15.377-37.122l31.748-31.748v42.788c0 8.845 3.686 17.428 10.111 23.548 13.314 12.678 20.951 30.494 20.951 48.883v83.363c-10.442-1.573-21.353-.109-31.309 4.636-5.77 2.749-11.611 4.144-17.362 4.144h-29.517v-70.801c0-4.143-3.357-7.5-7.5-7.5s-7.5 3.357-7.5 7.5v70.801h-78.188v-138.492c0-18.029-7.021-34.98-19.77-47.729l-42.347-42.346c.523-28.501 23.871-51.527 52.494-51.527zm-83.563 187.951c0-18.389 7.637-36.205 20.951-48.884 6.426-6.119 10.111-14.702 10.111-23.547v-42.788l31.748 31.748c9.916 9.915 15.377 23.099 15.377 37.122v138.491h-29.517c-5.751 0-11.593-1.395-17.362-4.144-9.957-4.745-20.867-6.208-31.309-4.636v-83.362zm284.175 164.484-5.469 5.469c-9.915 9.916-23.098 15.377-37.122 15.377h-218.605c-14.023 0-27.207-5.461-37.122-15.377l-5.469-5.469c-15.243-15.242-15.242-40.044.001-55.286.164-.164.329-.325.495-.486l4.231 8.452c11.274 22.562 33.947 36.577 59.169 36.577h29.456c4.143 0 7.5-3.357 7.5-7.5s-3.357-7.5-7.5-7.5h-29.456c-19.502 0-37.033-10.837-45.754-28.287l-4.968-9.922c4.621-1.838 9.554-2.781 14.519-2.781 5.69 0 11.423 1.239 16.773 3.789 7.801 3.718 15.813 5.603 23.815 5.603h167.221c8.002 0 16.015-1.885 23.815-5.603 10.018-4.774 21.372-4.952 31.289-1.01l-4.959 9.926c-8.729 17.447-26.26 28.285-45.753 28.285h-111.542c-4.143 0-7.5 3.357-7.5 7.5s3.357 7.5 7.5 7.5h111.544c25.21 0 47.882-14.015 59.169-36.577l4.224-8.454c.167.161.333.324.498.488 15.24 15.243 15.242 40.045 0 55.286z"/></g><g/><g/><g/><g/><g/><g/><g/><g/><g/><g/><g/><g/><g/><g/><g/></svg>