<svg id="Layer_1" enable-background="new 0 0 500 500" viewBox="0 0 500 500" xmlns="http://www.w3.org/2000/svg"><g clip-rule="evenodd" fill-rule="evenodd"><g fill="#a37767"><path d="m111.048 169.939h196.862c10.951 0 19.912 8.96 19.912 19.912v137.691c0 10.952-8.96 19.912-19.912 19.912h-196.862c-10.952 0-19.912-8.96-19.912-19.912v-137.691c0-10.952 8.96-19.912 19.912-19.912z"/><path d="m107.312 362.246h15.17c2.608 0 4.742 2.134 4.742 4.742v49.687c0 2.609-2.134 4.742-4.742 4.742h-15.17c-2.609 0-4.743-2.134-4.743-4.742v-49.687c0-2.608 2.134-4.742 4.743-4.742z"/><path d="m296.477 362.246h15.17c2.608 0 4.742 2.134 4.742 4.742v49.687c0 2.609-2.134 4.742-4.742 4.742h-15.17c-2.609 0-4.742-2.134-4.742-4.742v-49.687c-.001-2.608 2.133-4.742 4.742-4.742z"/></g><path d="m111.327 116.167c13.78 4.044 24.467 18.956 26.653 37.587 2.187-18.631 12.874-33.542 26.654-37.587-13.78-4.044-24.467-18.955-26.654-37.585-2.187 18.63-12.874 33.54-26.653 37.585z" fill="#ffbf31"/><path d="m201.492 169.938c13.78 4.051 24.467 18.984 26.653 37.644 2.187-18.659 12.874-33.593 26.654-37.644-13.78-4.05-24.467-18.983-26.654-37.642-2.187 18.658-12.873 33.591-26.653 37.642z" fill="#ffbf31"/><path d="m140.941 233.867c13.78 3.897 24.467 18.261 26.653 36.209 2.187-17.948 12.874-32.313 26.654-36.209-13.78-3.896-24.467-18.26-26.654-36.207-2.188 17.947-12.874 32.311-26.653 36.207z" fill="#ffbf31"/><path d="m345.304 144.175c-2.111 2.847-6.13 3.443-8.977 1.332s-3.443-6.13-1.333-8.977l8.954-12.071c.446-.602.978-1.103 1.565-1.499l-.007-.01c13.368-9.009 27.81-13.99 43.593-13.802 76.298.908 88.561 95.591 45.264 149.624-14.807 18.479-29.082 34.407-40.802 54.888-9.332 16.308-18.843 46.688-16.542 67.299 1.289 11.546 6.009 19.797 16.469 22.469 13.72 3.504 29.422-8.775 41.733-16.953 2.958-1.958 6.943-1.147 8.901 1.81s1.147 6.943-1.81 8.901c-14.809 9.837-32.453 23.704-51.992 18.713-16.099-4.112-24.205-16.781-26.075-33.533-2.621-23.476 7.475-56.436 18.152-75.094 12.477-21.804 27.312-38.268 41.959-56.547 20.273-25.301 28.348-64.071 16.609-93.816-8.679-21.991-26.738-34.637-52.016-34.938-6.093-.072-12.161.832-18.202 2.746-5.777 1.83-11.505 4.593-17.182 8.317z" fill="#fa6e85"/><path d="m349.104 128.282c5.276 4.259 6.107 12.06 1.848 17.335l-109.962 136.201-19.183-15.488 109.962-136.2c4.259-5.275 12.059-6.107 17.335-1.848z" fill="#19cfba"/><path d="m218.908 263.627h35.382c3.83 0 6.964 3.133 6.964 6.964v25.52c0 3.83-3.134 6.964-6.964 6.964h-35.382c-3.83 0-6.964-3.133-6.964-6.964v-25.52c.001-3.83 3.134-6.964 6.964-6.964z" fill="#fa6e85"/><path d="m185.656 288.282h78.43c5.5 0 10 4.5 10 10v44.241c-49.261 0-98.521 0-147.782 0l30.309-39.843c7.131-9.374 17.266-14.398 29.043-14.398z" fill="#19cfba"/><path d="m310.564 311.948v-21.964c0-11.08 3.459-26.672 10.511-38.875 7.893-13.659 17.054-20.022 32.964-18.658 13.508 1.159 24.11 12.49 24.11 26.298 0 13.143-9.606 24.043-22.18 26.061-12.05 1.934-20.75 12.141-20.75 24.345v62.953c0 8.136-6.657 14.793-14.793 14.793h-221.894c-8.136 0-14.793-6.657-14.793-14.793 0-20.984 0-41.969 0-62.953 0-12.204-8.7-22.411-20.75-24.345-12.574-2.018-22.18-12.918-22.18-26.061 0-13.808 10.602-25.14 24.11-26.298 15.91-1.364 25.072 4.998 32.964 18.658 7.052 12.204 10.511 27.795 10.511 38.875v21.964c0 8.692 7.089 15.782 15.782 15.782h170.606c8.692 0 15.782-7.09 15.782-15.782z" fill="#f0b16e"/></g></svg>